<svg width="78" height="30" viewBox="0 0 78 30" fill="none" xmlns="http://www.w3.org/2000/svg">
<rect width="78" height="30" rx="15" fill="#74F1F1" fill-opacity="0.2"/>
<rect x="0.5" y="0.5" width="77" height="29" rx="14.5" stroke="#74F1F1" stroke-opacity="0.5"/>
<path d="M15.4453 18.4365C16.4854 19.1396 17.7451 19.5498 18.8584 19.5498C20.2207 19.5498 21.0264 18.9639 21.0264 17.9824C21.0264 17.3525 20.4551 16.8691 19.4443 16.6348C19.2686 16.6055 18.8145 16.5029 18.1553 16.3564C16.1777 15.917 15.0645 14.8477 15.0645 13.3975C15.0645 11.4053 16.7051 10.0576 19.0928 10.0576C20.5137 10.0576 21.8613 10.5264 22.5938 11.2734L22.0371 12.665C21.1436 12.0205 20.0742 11.6543 19.0928 11.6543C17.7598 11.6543 16.9541 12.2988 16.9541 13.3975C16.9541 14.0713 17.5254 14.5693 18.5068 14.7891L19.7959 15.082C21.7881 15.5361 22.916 16.5762 22.916 17.9824C22.916 19.8574 21.2754 21.1465 18.8584 21.1465C17.2617 21.1465 15.7236 20.6777 14.874 19.9307L15.4453 18.4365ZM23.3115 10.2188H32.2031V11.8154H28.6875V21H26.8271V11.8154H23.3115V10.2188ZM31.0898 21L35.4844 10.2188H37.1104L41.5342 21H39.6006L38.6045 18.4365H34.0049L33.0088 21H31.0898ZM34.5615 17.0156H38.0479L36.3047 12.5479L34.5615 17.0156ZM42.7061 21V10.2188H44.2148L47.9209 17.3965L51.627 10.2188H53.1357V21H51.3633V13.749L48.4922 19.3301H47.335L44.4639 13.749V21H42.7061ZM59.6689 10.2188C61.9834 10.2188 63.3896 11.5518 63.3896 13.6611C63.3896 15.7852 61.9541 17.1182 59.6689 17.1182H57.2812V21H55.4062V10.2188H59.6689ZM57.2812 15.5068H59.6689C60.8848 15.5068 61.5732 14.833 61.5732 13.6611C61.5732 12.4893 60.8555 11.8154 59.6689 11.8154H57.2812V15.5068Z" fill="white"/>
</svg>
