<svg width="28" height="21" viewBox="0 0 28 21" fill="none" xmlns="http://www.w3.org/2000/svg">
<path d="M23.8287 2.09781C24.2427 3.25161 23.6374 4.53436 22.4836 4.94836C22.2948 5.01611 22.1089 5.05912 21.9223 5.06689L19.5243 10.1304C19.637 10.2794 19.7257 10.4607 19.7935 10.6495C20.2075 11.8033 19.6022 13.086 18.4484 13.5C17.2946 13.914 16.0118 13.3088 15.5978 12.155C15.5301 11.9662 15.4833 11.7698 15.4755 11.5832L11.8411 9.86822C11.6921 9.98089 11.5108 10.0696 11.322 10.1374C11.1332 10.2051 10.9369 10.2519 10.7502 10.2596L7.69396 16.7551C7.80663 16.9042 7.89159 17.0749 7.95934 17.2637C8.37335 18.4175 7.76807 19.7003 6.61427 20.1143C5.46047 20.5283 4.17772 19.923 3.76372 18.7692C3.34971 17.6154 3.95499 16.3327 5.10878 15.9187C5.29759 15.8509 5.48343 15.8079 5.67007 15.8001L8.74059 9.31138C8.62792 9.16237 8.5392 8.98109 8.47145 8.79229C8.05744 7.63849 8.66272 6.35574 9.81652 5.94174C10.9703 5.52773 12.2531 6.13301 12.6671 7.2868C12.7348 7.47561 12.7816 7.67194 12.7894 7.85858L16.4238 9.57354C16.5728 9.46088 16.7541 9.37215 16.9429 9.3044C17.1317 9.23666 17.328 9.18989 17.5147 9.18211L19.8984 4.11189C19.7857 3.96289 19.7008 3.7921 19.633 3.6033C19.219 2.4495 19.8243 1.16675 20.9781 0.752744C22.1319 0.338735 23.4147 0.944015 23.8287 2.09781ZM23.8287 2.09781C24.2427 3.25161 23.6374 4.53436 22.4836 4.94836C22.2948 5.01611 22.1089 5.05912 21.9223 5.06689L19.5243 10.1304C19.637 10.2794 19.7257 10.4607 19.7935 10.6495C20.2075 11.8033 19.6022 13.086 18.4484 13.5C17.2946 13.914 16.0118 13.3088 15.5978 12.155C15.5301 11.9662 15.4833 11.7698 15.4755 11.5832L11.8411 9.86822C11.6921 9.98089 11.5108 10.0696 11.322 10.1374C11.1332 10.2051 10.9369 10.2519 10.7502 10.2596L7.69396 16.7551C7.80663 16.9042 7.89159 17.0749 7.95934 17.2637C8.37335 18.4175 7.76807 19.7003 6.61427 20.1143C5.46047 20.5283 4.17772 19.923 3.76372 18.7692C3.34971 17.6154 3.95499 16.3327 5.10878 15.9187C5.29759 15.8509 5.48343 15.8079 5.67007 15.8001L8.74059 9.31138C8.62792 9.16237 8.5392 8.98109 8.47145 8.79229C8.05744 7.63849 8.66272 6.35574 9.81652 5.94174C10.9703 5.52773 12.2531 6.13301 12.6671 7.2868C12.7348 7.47561 12.7816 7.67194 12.7894 7.85858L16.4238 9.57354C16.5728 9.46088 16.7541 9.37215 16.9429 9.3044C17.1317 9.23666 17.328 9.18989 17.5147 9.18211L19.8984 4.11189C19.7857 3.96289 19.7008 3.7921 19.633 3.6033C19.219 2.4495 19.8243 1.16675 20.9781 0.752744C22.1319 0.338735 23.4147 0.944015 23.8287 2.09781Z" fill="white"/>
</svg>
