<svg width="249" height="67" viewBox="0 0 249 67" fill="none" xmlns="http://www.w3.org/2000/svg">
<path d="M5.37891 4.84766C7.66406 4.84766 9.35156 5.99609 9.35156 7.74219C9.35156 9.34766 7.98047 10.4258 6.03516 10.625V12.6055H10.2656V13.6953H0.527344V12.6055H4.71094V10.625C2.77734 10.4258 1.40625 9.34766 1.40625 7.74219C1.40625 5.99609 3.09375 4.84766 5.37891 4.84766ZM2.70703 7.74219C2.70703 8.90234 3.80859 9.60547 5.37891 9.60547C6.94922 9.60547 8.05078 8.90234 8.05078 7.74219C8.05078 6.60547 6.94922 5.90234 5.37891 5.90234C3.80859 5.90234 2.70703 6.60547 2.70703 7.74219ZM19.9102 6.53516V7.60156H12.5391V4.36719H13.8516V6.53516H19.9102ZM11.2969 9.48828V8.43359H21.0352V9.48828H11.2969ZM12.4336 11.2695V10.2617H19.8516V12.9922H13.7812V13.8477H20.1914V14.8672H12.457V12.0312H18.5273V11.2695H12.4336ZM25.5586 4.97656C27.2344 4.97656 28.4766 6.05469 28.4766 7.57812C28.4766 9.10156 27.2344 10.1797 25.5586 10.1797C23.8711 10.1797 22.6172 9.10156 22.6172 7.57812C22.6172 6.05469 23.8711 4.97656 25.5586 4.97656ZM22.1367 11.668C24.0469 11.668 26.7188 11.6562 29.0156 11.3164L29.1094 12.2773C26.7422 12.7344 24.1875 12.7578 22.3008 12.7578L22.1367 11.668ZM23.918 7.57812C23.918 8.48047 24.6094 9.04297 25.5586 9.04297C26.4844 9.04297 27.1758 8.48047 27.1758 7.57812C27.1758 6.67578 26.4844 6.11328 25.5586 6.11328C24.6094 6.11328 23.918 6.67578 23.918 7.57812ZM29.6484 15.0078V4.22656H30.9727V15.0078H29.6484ZM41.2148 5.23438V12.3711H36.1289V5.23438H41.2148ZM37.4414 11.3164H39.9141V6.27734H37.4414V11.3164ZM43.1133 15.0078V4.22656H44.4375V15.0078H43.1133ZM50.2383 6.13672C50.2383 7.64844 51.0703 9.125 52.7109 9.74609L51.9844 10.7773C50.8477 10.3203 50.0391 9.44141 49.582 8.33984C49.125 9.52344 48.2578 10.4492 47.0273 10.9297L46.3242 9.88672C48.0352 9.26562 48.9023 7.75391 48.9023 6.13672V4.84766H50.2383V6.13672ZM48.2578 14.7852V11.4688H49.582V13.707H55.5352V14.7852H48.2578ZM52.0312 8.89062V7.83594H53.9531V6.76953H52.0312V5.70312H53.9531V4.23828H55.2891V12.2188H53.9531V8.89062H52.0312Z" fill="#74F1F1"/>
<path d="M6.72363 26.6621C9.55078 26.6621 11.6016 28.0537 11.6016 30.207C11.6016 32.1846 9.8877 33.5029 7.42676 33.7227V36.3447H12.7881V37.5166H0.703125V36.3447H6.00586V33.7227C3.55957 33.5029 1.83105 32.1699 1.83105 30.207C1.83105 28.0537 3.89648 26.6621 6.72363 26.6621ZM3.22266 30.207C3.22266 31.6865 4.6875 32.624 6.72363 32.624C8.75977 32.624 10.2246 31.6865 10.2246 30.207C10.2246 28.7422 8.75977 27.79 6.72363 27.79C4.6875 27.79 3.22266 28.7422 3.22266 30.207ZM24.8438 28.8594V30.0166H15.7617V26.0176H17.1533V28.8594H24.8438ZM14.165 32.3311V31.1885H26.25V32.3311H14.165ZM15.6299 34.499V33.415H24.7559V36.667H17.0801V37.9121H25.1807V39.0107H15.6592V35.627H23.335V34.499H15.6299ZM39.6973 32.7998V33.9424H27.6416V32.7998H39.6973ZM28.9453 28.9619C28.9453 27.292 30.8057 26.2812 33.6768 26.2812C36.5479 26.2812 38.4082 27.292 38.4082 28.9619C38.4082 30.6318 36.5479 31.6426 33.6768 31.6426C30.8057 31.6426 28.9453 30.6318 28.9453 28.9619ZM29.1797 38.9082V35.0264H30.6006V37.751H38.3643V38.9082H29.1797ZM30.4102 28.9619C30.4102 29.9434 31.6699 30.5 33.6768 30.5C35.6836 30.5 36.9434 29.9434 36.9434 28.9619C36.9434 27.9805 35.6836 27.4238 33.6768 27.4238C31.6699 27.4238 30.4102 27.9805 30.4102 28.9619ZM54.8145 25.8418V31.2471H56.9092V32.4336H54.8145V39.1865H53.3936V25.8418H54.8145ZM44.4287 29.0791V27.9219H47.666V26.0176H49.0869V27.9219H52.2656V29.0791H44.4287ZM45.1025 33.1807C45.1025 31.3643 46.4941 30.0752 48.3984 30.0752C50.2881 30.0752 51.6797 31.3643 51.6797 33.1807C51.6797 34.9971 50.2881 36.2715 48.3984 36.2715C46.4941 36.2715 45.1025 34.9971 45.1025 33.1807ZM46.4648 33.1807C46.4648 34.3232 47.2705 35.0996 48.3984 35.0996C49.5117 35.0996 50.3174 34.3232 50.3174 33.1807C50.3174 32.0234 49.5117 31.2471 48.3984 31.2471C47.2705 31.2471 46.4648 32.0234 46.4648 33.1807ZM62.8418 29.7822C62.8418 32.0088 64.292 34.3086 66.3281 35.1729L65.5371 36.3008C63.999 35.5977 62.7686 34.1328 62.1533 32.375C61.5381 34.2646 60.3076 35.8906 58.7549 36.6377L57.9346 35.5098C59.9561 34.5576 61.4062 32.0674 61.4062 29.7822V28.3613H58.4033V27.1748H65.8594V28.3613H62.8418V29.7822ZM67.5 39.1865V25.8418H68.9209V39.1865H67.5ZM82.8223 25.8418V39.1719H81.46V25.8418H82.8223ZM71.6016 31.5986C71.6016 28.6982 72.7148 26.8965 74.4434 26.8965C75.5713 26.8965 76.4502 27.6582 76.9189 28.9766H78.8232V26.1055H80.1709V38.5273H78.8232V34.2207H76.9189C76.4502 35.5537 75.5713 36.3154 74.4434 36.3154C72.7148 36.3154 71.6016 34.5137 71.6016 31.5986ZM72.8906 31.5986C72.8906 33.7227 73.4912 34.9824 74.4434 34.9824C75.4248 34.9824 76.0254 33.7227 76.0254 31.5986C76.0254 29.4746 75.4248 28.2295 74.4434 28.2295C73.4912 28.2295 72.8906 29.4746 72.8906 31.5986ZM77.2119 33.0635H78.8232V30.1484H77.2119C77.2852 30.5879 77.3145 31.0713 77.3145 31.5986C77.3145 32.126 77.2705 32.6094 77.2119 33.0635ZM97.0166 36.3447V37.5166H84.9316V36.3447H87.8027V32.8584C86.7188 32.2578 86.0596 31.3057 86.0596 30.1045C86.0596 27.9951 88.1104 26.6328 90.9521 26.6328C93.7939 26.6328 95.8301 27.9951 95.8301 30.1045C95.8301 31.291 95.1855 32.2432 94.1162 32.8438V36.3447H97.0166ZM87.4512 30.1045C87.4512 31.54 88.8867 32.4629 90.9521 32.4629C93.0029 32.4629 94.4531 31.54 94.4531 30.1045C94.4531 28.6689 93.0029 27.7461 90.9521 27.7461C88.8867 27.7461 87.4512 28.6689 87.4512 30.1045ZM89.209 36.3447H92.6953V33.3857C92.168 33.5176 91.582 33.5762 90.9521 33.5762C90.3223 33.5762 89.7363 33.5176 89.209 33.3857V36.3447ZM98.9941 34.9971L98.5107 27.2188H100.459L99.9609 34.9971H98.9941ZM98.5693 38V36.1689H100.386V38H98.5693ZM106.392 38V36.6816H108.75V29.0352L106.831 30.2217L106.201 29.0791L109.204 27.2188H110.347V36.6816H112.734V38H106.392ZM125.332 25.8418V35.7002H123.911V31.1738H120.293V30.0312H123.911V28.6396H120.293V27.5117H123.911V25.8418H125.332ZM115.078 33.7959V26.7793H116.484V32.624C118.257 32.6094 119.912 32.4922 121.787 32.1553L121.934 33.3271C119.854 33.708 118.066 33.7959 116.089 33.7959H115.078ZM116.719 38.9082V34.8506H118.14V37.751H125.669V38.9082H116.719ZM143.203 32.0234V33.1807H137.886V34.4551C140.317 34.5869 141.753 35.4219 141.753 36.7988C141.753 38.3076 140.024 39.1572 137.168 39.1572C134.297 39.1572 132.583 38.3076 132.583 36.7988C132.583 35.4219 134.019 34.5869 136.465 34.4551V33.1807H131.147V32.0234H143.203ZM131.777 30.1777C134.194 29.9434 136.055 28.8594 136.23 27.5703H132.261V26.4424H142.119V27.5703H138.135C138.311 28.8594 140.171 29.9434 142.588 30.1777L142.075 31.3057C139.775 31.042 137.9 30.0752 137.183 28.6689C136.465 30.0752 134.59 31.042 132.29 31.3057L131.777 30.1777ZM134.019 36.7988C134.019 37.6191 135.161 38.0732 137.168 38.0732C139.16 38.0732 140.317 37.6191 140.317 36.7988C140.317 35.9785 139.16 35.5391 137.168 35.5391C135.161 35.5391 134.019 35.9785 134.019 36.7988ZM154.526 28.0391V29.1963H147.979V28.0391H150.571V26.2227H151.978V28.0391H154.526ZM148.389 33.0781C148.389 31.2617 149.604 30.002 151.26 30.002C152.944 30.002 154.146 31.2617 154.146 33.0781C154.146 34.8945 152.944 36.1543 151.26 36.1543C149.604 36.1543 148.389 34.8945 148.389 33.0781ZM149.648 33.0781C149.648 34.2061 150.322 34.9678 151.26 34.9678C152.212 34.9678 152.886 34.2061 152.886 33.0781C152.886 31.9502 152.212 31.1885 151.26 31.1885C150.322 31.1885 149.648 31.9502 149.648 33.0781ZM155.142 38.5566V26.1201H156.475V31.3936H157.983V25.8418H159.331V39.1719H157.983V32.5654H156.475V38.5566H155.142ZM171.782 25.8271V31.1592H173.833V32.3311H171.782V39.1719H170.361V25.8271H171.782ZM161.499 35.627C164.81 33.9424 166.582 31.5254 166.875 28.4199H162.144V27.248H168.311C168.311 31.1006 166.641 34.5283 162.29 36.7109L161.499 35.627ZM188.628 25.8271V31.1592H190.679V32.3311H188.628V39.1719H187.207V25.8271H188.628ZM178.345 35.627C181.655 33.9424 183.428 31.5254 183.721 28.4199H178.989V27.248H185.156C185.156 31.1006 183.486 34.5283 179.136 36.7109L178.345 35.627ZM196.421 28.2881C196.421 29.9727 197.593 31.5254 199.6 32.1699L198.911 33.2832C197.402 32.7998 196.318 31.8037 195.747 30.5439C195.161 31.9941 194.019 33.1514 192.422 33.708L191.704 32.5801C193.77 31.877 195 30.1484 195 28.3027V27.9512H192.114V26.7939H199.263V27.9512H196.421V28.2881ZM193.491 36.6523C193.491 35.085 195.176 34.1621 197.915 34.1621C200.64 34.1621 202.324 35.085 202.324 36.6523C202.324 38.2344 200.64 39.1572 197.915 39.1572C195.176 39.1572 193.491 38.2344 193.491 36.6523ZM194.897 36.6523C194.897 37.5459 196.011 38.0439 197.915 38.0439C199.805 38.0439 200.933 37.5459 200.933 36.6523C200.933 35.7734 199.805 35.29 197.915 35.29C196.011 35.29 194.897 35.7734 194.897 36.6523ZM200.771 33.8398V25.8418H202.192V29.1377H204.097V30.3096H202.192V33.8398H200.771ZM11.6602 48.8418V58.5391H10.2246V48.8418H11.6602ZM0.908203 55.9756C4.04297 55.0234 5.99121 53.251 6.26953 51.0098H1.62598V49.8379H7.79297C7.79297 53.3535 5.41992 55.917 1.46484 57.1182L0.908203 55.9756ZM2.95898 61.9082V57.748H4.37988V60.751H11.9678V61.9082H2.95898ZM27.9346 48.8418V51.5225H29.8389V52.6943H27.9346V55.5215H26.5137V48.8418H27.9346ZM18.1494 54.9648V49.4277H19.5703V53.7783C21.3428 53.7637 23.2031 53.6172 25.2246 53.2217L25.3857 54.3789C23.1738 54.833 21.167 54.9648 19.2188 54.9648H18.1494ZM19.3652 57.2646V56.1367H27.9346V59.5352H20.8154V60.8682H28.3887V62.0107H19.3945V58.4658H26.5137V57.2646H19.3652ZM35.332 49.7793C37.4121 49.7793 38.9355 51.0977 38.9355 52.9727C38.9355 54.8477 37.4121 56.1514 35.332 56.1514C33.252 56.1514 31.7285 54.8477 31.7285 52.9727C31.7285 51.0977 33.252 49.7793 35.332 49.7793ZM31.084 58.1582C33.4863 58.1582 36.8262 58.1436 39.7119 57.7041L39.8145 58.7441C36.8555 59.3154 33.6328 59.3447 31.2744 59.3447L31.084 58.1582ZM33.1201 52.9727C33.1201 54.1445 34.0576 54.9355 35.332 54.9355C36.6064 54.9355 37.5439 54.1445 37.5439 52.9727C37.5439 51.7861 36.6064 51.0098 35.332 51.0098C34.0576 51.0098 33.1201 51.7861 33.1201 52.9727ZM40.5322 62.2012V48.8271H41.9531V62.2012H40.5322ZM59.9121 55.2871V56.4297H54.5947V57.5869C57.0264 57.7188 58.4473 58.5244 58.4473 59.8721C58.4473 61.3369 56.748 62.1572 53.877 62.1572C51.0059 62.1572 49.292 61.3369 49.292 59.8721C49.292 58.5098 50.7275 57.7188 53.1885 57.5869V56.4297H47.8564V55.2871H59.9121ZM48.9551 50.4678V49.3252H58.7988V50.4678H56.8652V53.0166H58.7256V54.1738H49.0283V53.0166H50.8887V50.4678H48.9551ZM50.7275 59.8721C50.7275 60.6631 51.8701 61.0879 53.877 61.0879C55.8838 61.0879 57.0117 60.6631 57.0117 59.8721C57.0117 59.0811 55.8838 58.6562 53.877 58.6562C51.8701 58.6562 50.7275 59.0811 50.7275 59.8721ZM52.3096 53.0166H55.459V50.4678H52.3096V53.0166ZM72.3633 48.8418V56.7373H70.9424V55.126H67.6172V53.9688H70.9424V52.3428H67.7637C66.9287 54.4814 64.9365 55.9902 62.0654 56.8252L61.4941 55.6973C64.6582 54.8184 66.46 53.1191 66.6943 50.9658H62.1973V49.8086H68.2324C68.2324 50.292 68.1885 50.7607 68.1006 51.2002H70.9424V48.8418H72.3633ZM63.5596 59.5059C63.5596 57.8799 65.3027 56.8984 68.0127 56.8984C70.708 56.8984 72.4365 57.8799 72.4365 59.5059C72.4365 61.1318 70.708 62.1133 68.0127 62.1133C65.3027 62.1133 63.5596 61.1318 63.5596 59.5059ZM64.9658 59.5059C64.9658 60.458 66.1377 61 68.0127 61C69.873 61 71.0449 60.458 71.0449 59.5059C71.0449 58.5537 69.873 58.0117 68.0127 58.0117C66.1377 58.0117 64.9658 58.5537 64.9658 59.5059ZM80.8447 49.0615C83.8184 49.0615 85.5762 49.8672 85.5762 51.3613C85.5762 52.8408 83.8184 53.6611 80.8447 53.6611C77.8711 53.6611 76.1133 52.8408 76.1133 51.3613C76.1133 49.8672 77.8711 49.0615 80.8447 49.0615ZM74.8096 55.6094V54.4814H86.8652V55.6094H74.8096ZM76.2451 57.7188V56.6348H85.3418V59.7695H77.6807V60.9561H85.7373V62.0547H76.2744V58.7441H83.9502V57.7188H76.2451ZM77.5781 51.3613C77.5781 52.167 78.7354 52.5918 80.8447 52.5918C82.9395 52.5918 84.0967 52.167 84.0967 51.3613C84.0967 50.5557 82.9395 50.1162 80.8447 50.1162C78.7354 50.1162 77.5781 50.5557 77.5781 51.3613ZM102.056 48.8418V52.0205H103.96V53.1924H102.056V56.3711H100.635V48.8418H102.056ZM92.2412 55.6973V49.7207H98.1299V50.8633H93.6621V54.54C96.2256 54.54 97.6758 54.4521 99.3311 54.1152L99.4775 55.2578C97.7051 55.624 96.1523 55.6973 93.2959 55.6973H92.2412ZM93.5889 62.0107V57.0449H102.056V62.0107H93.5889ZM94.9805 60.8682H100.664V58.1729H94.9805V60.8682ZM108.691 49.8379C110.669 49.8379 112.09 51.6543 112.09 54.5107C112.09 57.3818 110.669 59.2129 108.691 59.2129C106.714 59.2129 105.293 57.3818 105.293 54.5107C105.293 51.6543 106.714 49.8379 108.691 49.8379ZM106.655 54.5107C106.655 56.6348 107.49 57.9385 108.691 57.9385C109.893 57.9385 110.728 56.6348 110.728 54.5107C110.728 52.416 109.893 51.1123 108.691 51.1123C107.49 51.1123 106.655 52.416 106.655 54.5107ZM114.023 62.1865V48.8418H115.444V54.0859H117.554V55.2725H115.444V62.1865H114.023ZM130.708 59.3594V60.5312H118.623V59.3594H123.926V56.6055H120V49.75H121.406V52.0352H127.881V49.75H129.287V56.6055H125.347V59.3594H130.708ZM121.406 55.4629H127.881V53.1777H121.406V55.4629ZM136.128 52.46C136.128 54.6133 137.007 56.8691 138.779 57.9678L137.974 59.0811C136.758 58.334 135.923 57.001 135.469 55.4629C134.985 57.1475 134.077 58.583 132.788 59.374L131.909 58.3047C133.784 57.1914 134.766 54.8037 134.766 52.5186V50.0723H136.128V52.46ZM137.344 54.7012V53.5293H139.395V49.1055H140.728V61.5273H139.395V54.7012H137.344ZM142.104 62.1719V48.8418H143.467V62.1719H142.104ZM157.661 59.3447V60.5166H145.576V59.3447H148.447V55.8584C147.363 55.2578 146.704 54.3057 146.704 53.1045C146.704 50.9951 148.755 49.6328 151.597 49.6328C154.438 49.6328 156.475 50.9951 156.475 53.1045C156.475 54.291 155.83 55.2432 154.761 55.8438V59.3447H157.661ZM148.096 53.1045C148.096 54.54 149.531 55.4629 151.597 55.4629C153.647 55.4629 155.098 54.54 155.098 53.1045C155.098 51.6689 153.647 50.7461 151.597 50.7461C149.531 50.7461 148.096 51.6689 148.096 53.1045ZM149.854 59.3447H153.34V56.3857C152.812 56.5176 152.227 56.5762 151.597 56.5762C150.967 56.5762 150.381 56.5176 149.854 56.3857V59.3447Z" fill="white"/>
</svg>
