<svg xmlns="http://www.w3.org/2000/svg" viewBox="0 0 732 228" fill="none">
<path d="M 429.243 9.449 C 427.612 10.821, 425.148 12.374, 423.766 12.899 C 422.263 13.470, 420.975 14.964, 420.560 16.616 C 420.179 18.135, 418.884 20.755, 417.684 22.439 C 415.500 25.500, 415.500 25.500, 415.236 122.616 C 414.991 212.214, 415.100 219.838, 416.637 221.116 C 418.602 222.749, 464.532 223.682, 466.874 222.136 C 467.986 221.402, 468.216 216.566, 468.077 196.864 C 467.944 178.005, 468.204 172.092, 469.229 170.696 C 471.155 168.070, 473.826 169.558, 474.601 173.688 C 475.228 177.027, 476.391 178.666, 483.750 186.574 C 485.538 188.495, 487 190.648, 487 191.359 C 487 192.070, 488.125 193.708, 489.500 195 C 490.875 196.292, 492 197.967, 492 198.724 C 492 199.480, 493.575 201.721, 495.500 203.703 C 497.425 205.685, 499 207.805, 499 208.413 C 499 209.021, 499.889 210.074, 500.977 210.753 C 502.064 211.432, 503.890 213.824, 505.035 216.069 C 508.409 222.682, 510.029 223, 540.386 223 C 554.934 223, 567.548 222.727, 568.418 222.393 C 571.121 221.356, 570.191 219.081, 564.861 213.694 C 562.034 210.837, 559.146 207.141, 558.443 205.480 C 557.740 203.819, 556.228 201.611, 555.083 200.575 C 553.937 199.538, 553 198.100, 553 197.378 C 553 196.657, 551.538 194.508, 549.750 192.604 C 545.118 187.668, 541.679 183.035, 540.358 179.950 C 539.244 177.350, 537.343 174.948, 531.770 169.100 C 530.268 167.524, 528.569 165.169, 527.994 163.867 C 526.179 159.755, 518.121 148.610, 513.287 143.522 C 508.150 138.116, 508.047 130.182, 513.066 126.666 C 515.490 124.968, 519.447 119.594, 521.823 114.773 C 522.833 112.722, 524.748 109.913, 526.080 108.528 C 532.342 102.017, 537.849 94.777, 540.174 90 C 540.843 88.625, 542.540 86.306, 543.945 84.846 C 545.350 83.386, 547.850 80.325, 549.500 78.043 C 551.150 75.761, 553.737 72.396, 555.250 70.565 C 556.763 68.734, 558 66.718, 558 66.085 C 558 65.018, 561.291 61.152, 567.468 54.962 C 570.154 52.270, 570.834 49.062, 568.750 48.906 C 568.063 48.855, 556.475 48.885, 543 48.973 C 518.811 49.132, 518.455 49.165, 514.946 51.567 C 512.992 52.905, 510.614 54, 509.663 54 C 508.192 54, 505.288 56.278, 499.925 61.642 C 499.297 62.270, 497.256 64.520, 495.389 66.642 C 493.522 68.764, 490.921 71.625, 489.609 73 C 488.297 74.375, 486.888 76.625, 486.477 78 C 485.718 80.541, 482.063 85.478, 477.592 90 C 476.233 91.375, 474.655 93.737, 474.085 95.250 C 473.225 97.534, 469.961 99.071, 468.776 97.750 C 468.652 97.612, 468.315 77.250, 468.026 52.500 L 467.500 7.500 449.854 7.227 C 432.317 6.956, 432.189 6.970, 429.243 9.449 M 0 55 C 0 60.204, 0.249 61, 1.879 61 C 4.338 61, 5.738 64.742, 6.555 73.500 C 6.969 77.940, 8.038 81.963, 9.477 84.500 C 10.883 86.977, 12.017 91.166, 12.456 95.500 C 12.900 99.883, 14.022 103.996, 15.456 106.500 C 16.890 109.004, 18.012 113.117, 18.456 117.500 C 18.900 121.883, 20.022 125.996, 21.456 128.500 C 22.890 131.004, 24.012 135.117, 24.456 139.500 C 24.900 143.883, 26.022 147.996, 27.456 150.500 C 28.890 153.004, 30.012 157.117, 30.456 161.500 C 30.900 165.883, 32.022 169.996, 33.456 172.500 C 34.890 175.004, 36.012 179.117, 36.456 183.500 C 36.898 187.863, 38.025 192.007, 39.448 194.500 C 40.703 196.700, 41.956 200.596, 42.232 203.158 C 42.978 210.088, 49.777 216.524, 57.219 217.344 C 70.060 218.760, 93.884 218.545, 95.364 217 C 98.919 213.288, 101.834 205.334, 102.510 197.500 C 102.942 192.484, 104.065 187.635, 105.520 184.500 C 106.963 181.389, 108.107 176.477, 108.547 171.500 C 108.998 166.398, 110.069 161.870, 111.504 159 C 112.741 156.525, 114.076 153.007, 114.471 151.182 C 115.204 147.792, 117.441 146.034, 119.009 147.617 C 119.489 148.103, 120.198 153.225, 120.584 159 C 121.116 166.957, 121.839 170.590, 123.571 174 C 125.079 176.969, 126.081 181.221, 126.519 186.500 C 126.939 191.555, 127.950 195.973, 129.267 198.500 C 130.413 200.700, 131.668 205.355, 132.056 208.845 C 133.109 218.318, 131.925 217.921, 159.490 218.036 C 186.392 218.148, 187 217.982, 187 210.524 C 187 208.734, 187.933 206.083, 189.074 204.633 C 190.460 202.871, 191.597 199.013, 192.499 193.008 C 193.321 187.538, 194.615 182.940, 195.805 181.260 C 197.075 179.467, 198.018 175.873, 198.497 171 C 198.976 166.131, 200.034 162.097, 201.513 159.500 C 202.932 157.011, 204.060 152.856, 204.502 148.500 C 204.951 144.070, 206.060 140.031, 207.523 137.500 C 208.986 134.969, 210.095 130.930, 210.544 126.500 C 210.988 122.117, 212.110 118.004, 213.544 115.500 C 214.978 112.996, 216.100 108.883, 216.544 104.500 C 216.983 100.166, 218.117 95.977, 219.523 93.500 C 220.936 91.009, 222.055 86.859, 222.488 82.500 C 222.922 78.135, 223.987 74.190, 225.317 72.019 C 226.618 69.894, 227.886 65.282, 228.569 60.185 C 230.151 48.395, 230.874 48.803, 209.117 49.188 C 188.344 49.556, 187.080 50.038, 178.088 61.012 C 175.785 63.823, 175.069 65.920, 174.501 71.512 C 174.061 75.856, 172.930 80.014, 171.513 82.500 C 170.033 85.098, 168.976 89.130, 168.498 94 C 168.040 98.670, 166.863 103.280, 165.381 106.217 C 164.071 108.811, 162.955 112.636, 162.900 114.717 C 162.744 120.646, 161.639 123.500, 159.500 123.500 C 157.281 123.500, 156.246 120.606, 156.100 113.992 C 156.041 111.322, 155.024 107.650, 153.606 104.987 C 152.148 102.248, 150.925 97.753, 150.479 93.495 C 150.031 89.210, 148.868 84.950, 147.477 82.500 C 146.103 80.078, 144.940 75.854, 144.529 71.793 C 143.671 63.316, 140.124 57.979, 131.500 52.191 C 125.358 48.068, 105.265 47.567, 100 51.405 C 98.075 52.809, 95.485 54.490, 94.245 55.142 C 92.832 55.884, 91.617 57.852, 90.993 60.413 C 90.446 62.661, 88.879 66.750, 87.512 69.500 C 85.914 72.713, 84.795 77.103, 84.380 81.784 C 83.938 86.780, 83.113 89.858, 81.755 91.584 C 80.449 93.244, 79.366 97.081, 78.572 102.852 C 77.602 109.911, 76.743 112.513, 74.136 116.302 C 69.062 123.677, 67.654 122.321, 66.554 109 C 66.050 102.892, 65.203 99.374, 63.543 96.500 C 62.022 93.865, 60.983 89.941, 60.498 85 C 60.027 80.191, 58.908 75.889, 57.381 73.008 C 56.072 70.537, 55 67.265, 55 65.736 C 55 62.829, 47.888 54, 45.547 54 C 44.888 54, 43.292 52.875, 42 51.500 C 39.651 49, 39.651 49, 19.826 49 C 0 49, 0 49, 0 55 M 376.500 53.938 C 359.639 54.570, 359.679 54.555, 353.250 62.637 C 349.819 66.950, 349 68.765, 349 72.056 C 349 80.150, 345.509 82.228, 340.570 77.073 C 339.027 75.463, 336.355 73.577, 334.633 72.883 C 332.910 72.189, 330.546 70.621, 329.379 69.399 C 327.892 67.840, 325.503 66.962, 321.379 66.457 C 318.146 66.062, 313.346 64.897, 310.713 63.869 C 304.389 61.400, 294.561 61.414, 288.250 63.901 C 285.597 64.947, 280.875 66.122, 277.756 66.511 C 273.440 67.051, 271.731 67.761, 270.600 69.488 C 269.755 70.778, 267.634 72.034, 265.682 72.400 C 262.200 73.053, 259.259 75.301, 250.787 83.782 C 241.898 92.681, 241.239 93.508, 240.041 97.258 C 239.380 99.324, 237.979 101.476, 236.927 102.039 C 235.749 102.670, 234.764 104.624, 234.364 107.124 C 234.007 109.358, 232.685 112.409, 231.427 113.905 C 225.359 121.116, 225.416 169.583, 231.502 177.583 C 232.791 179.278, 234.156 182.317, 234.535 184.336 C 235.497 189.465, 240.400 195.856, 253.860 209.525 C 257.908 213.636, 261.765 217, 262.430 217 C 263.095 217, 264.575 218.077, 265.719 219.392 C 267.184 221.077, 269.356 221.999, 273.061 222.508 C 276.590 222.994, 279.108 224.017, 280.707 225.616 C 283.037 227.946, 283.487 228, 300.545 228 C 315.208 228, 318 227.766, 318 226.535 C 318 224.614, 320.498 223.399, 325.848 222.718 C 328.240 222.413, 331.165 221.270, 332.348 220.178 C 333.532 219.085, 336.188 217.497, 338.250 216.647 C 340.313 215.797, 342 214.420, 342 213.586 C 342 212.752, 342.929 211.573, 344.064 210.966 C 347.268 209.251, 349.039 211.384, 348.838 216.714 C 348.728 219.627, 349.161 221.489, 350.085 222.073 C 352.332 223.496, 394.355 223.245, 395.800 221.800 C 396.714 220.886, 397 200.990, 397 138.357 C 397 56.113, 397 56.113, 394.777 54.557 C 393.555 53.701, 392.318 53.085, 392.027 53.188 C 391.737 53.292, 384.750 53.629, 376.500 53.938 M 296 118.027 C 295.175 118.575, 292.638 119.509, 290.363 120.102 C 287.246 120.915, 285.026 122.570, 281.363 126.813 C 276.500 132.446, 276.500 132.446, 276.500 145.973 C 276.500 159.500, 276.500 159.500, 281.079 164.250 C 283.597 166.863, 286.106 169, 286.654 169 C 287.203 169, 288.708 170.125, 290 171.500 C 293.689 175.427, 304.924 175.137, 310.428 170.972 C 312.589 169.337, 314.962 168, 315.703 168 C 316.444 168, 317.489 166.844, 318.026 165.432 C 318.563 164.019, 320.239 161.242, 321.751 159.260 C 324.333 155.875, 324.500 155.038, 324.500 145.495 C 324.500 135.678, 324.398 135.210, 321.500 131.704 C 319.850 129.707, 317.496 126.758, 316.268 125.150 C 312.573 120.312, 299.486 115.712, 296 118.027" stroke="none" fill="#ffffff" fill-rule="evenodd"/>
<path d="M 602.820 2.246 C 602.614 3.692, 601.191 5.107, 598.826 6.218 C 596.806 7.167, 594.886 8.784, 594.560 9.812 C 594.234 10.839, 592.879 12.262, 591.549 12.974 C 587.830 14.964, 586.089 33.844, 588.935 41.328 C 590.910 46.524, 597.986 53.907, 601.649 54.594 C 603.502 54.942, 606.207 56.162, 607.661 57.305 C 611.235 60.116, 618.591 60.129, 622.576 57.331 C 624.184 56.202, 627.165 54.738, 629.200 54.078 C 631.750 53.251, 634.081 51.296, 636.700 47.788 C 643.237 39.032, 643.132 39.380, 642.730 27.836 C 642.369 17.512, 642.256 17.056, 639.179 13.551 C 637.430 11.560, 636 9.480, 636 8.930 C 636 8.379, 633.975 7.061, 631.500 6 C 628.272 4.616, 627 3.496, 627 2.036 C 627 0.102, 626.403 0, 615.070 0 C 603.465 0, 603.130 0.061, 602.820 2.246 M 679.580 2.535 C 679.230 3.930, 677.904 5.466, 676.633 5.949 C 673.183 7.261, 666 15.013, 666 17.424 C 666 18.582, 665.100 21.209, 664 23.261 C 661.502 27.923, 661.467 31.379, 663.878 35.382 C 664.911 37.097, 666.039 40.091, 666.383 42.035 C 666.774 44.239, 668.325 46.810, 670.505 48.866 C 672.427 50.679, 674 52.556, 674 53.036 C 674 53.516, 675.688 54.197, 677.750 54.548 C 679.813 54.899, 682.763 56.077, 684.307 57.166 C 688.837 60.359, 692.842 60.473, 698.500 57.572 C 701.250 56.162, 704.051 55.006, 704.724 55.004 C 705.977 55, 712.246 48.794, 717.370 42.484 C 721.603 37.272, 721.937 21.697, 717.909 17.317 C 716.485 15.768, 714.751 13.057, 714.056 11.293 C 713.138 8.963, 711.797 7.766, 709.147 6.913 C 704.465 5.406, 703 4.206, 703 1.878 C 703 0.151, 702.086 0, 691.608 0 C 680.249 0, 680.215 0.007, 679.580 2.535 M 607.500 72.707 C 603.663 73.619, 596.020 82.195, 594.508 87.284 C 593.726 89.920, 592.160 93.252, 591.030 94.689 C 589.900 96.125, 588.692 99.075, 588.345 101.243 C 587.998 103.412, 586.692 106.401, 585.441 107.888 C 584.191 109.374, 582.850 112.369, 582.463 114.545 C 582.075 116.720, 580.670 119.667, 579.341 121.094 C 573.988 126.841, 575.448 136.236, 581.968 137.991 C 584.020 138.544, 587.076 140.234, 588.758 141.748 C 590.440 143.262, 592.791 145.175, 593.982 146 C 596.066 147.444, 596.102 147.763, 594.929 154.490 C 594.259 158.334, 592.683 163.059, 591.427 164.990 C 590.170 166.920, 588.832 170.750, 588.452 173.500 C 588.064 176.314, 586.876 179.470, 585.737 180.718 C 584.539 182.030, 583.137 185.910, 582.304 190.218 C 581.529 194.223, 580.665 198.625, 580.383 200 C 579.659 203.530, 582.645 214.303, 584.680 215.500 C 585.615 216.050, 587.648 217.842, 589.198 219.482 C 592.017 222.464, 592.017 222.464, 609.397 222.843 C 629.395 223.279, 631 222.711, 631 215.194 C 631 212.752, 631.856 210.228, 633.391 208.148 C 634.897 206.107, 636.036 202.798, 636.471 199.204 C 636.851 196.067, 638.197 191.700, 639.463 189.500 C 640.729 187.300, 642.082 183.025, 642.471 180 C 642.865 176.926, 644.241 172.855, 645.589 170.771 C 646.915 168.721, 648 165.553, 648 163.733 C 648 161.912, 648.836 158.782, 649.859 156.777 C 651.692 153.180, 651.689 153.081, 649.581 149.316 C 648.250 146.939, 646.309 145.123, 644.434 144.500 C 642.778 143.950, 640.130 142.478, 638.549 141.228 C 636.968 139.979, 634.619 138.692, 633.329 138.368 C 629.135 137.315, 628.999 129.145, 633.122 125.949 C 634.223 125.096, 635.563 122.440, 636.101 120.047 C 636.639 117.654, 638.144 114.430, 639.445 112.882 C 640.747 111.335, 642.112 108.294, 642.479 106.124 C 642.846 103.954, 644.023 101.384, 645.096 100.413 C 646.169 99.442, 647.727 96.308, 648.558 93.447 C 649.390 90.587, 650.954 87.446, 652.035 86.468 C 653.116 85.490, 654 83.920, 654 82.980 C 654 82.039, 654.900 80.126, 656 78.727 C 658.643 75.368, 658.523 74.149, 655.435 72.975 C 652.905 72.013, 611.396 71.781, 607.500 72.707 M 686.972 73 C 683.024 73.799, 673 81.760, 673 84.097 C 673 86.691, 671.170 90.154, 668.975 91.713 C 668.036 92.380, 666.979 94.727, 666.627 96.928 C 666.269 99.170, 664.946 101.936, 663.620 103.215 C 662.289 104.499, 660.994 107.211, 660.663 109.406 C 660.333 111.597, 658.961 114.476, 657.538 115.961 C 656.142 117.418, 655 119.491, 655 120.570 C 655 121.648, 654.131 124.151, 653.069 126.133 C 651.101 129.805, 651.698 132, 654.665 132 C 655.361 132, 657.409 133.297, 659.215 134.883 C 661.022 136.469, 664.158 138.458, 666.184 139.304 C 673.383 142.311, 674.813 151.344, 669.539 160.500 C 668.176 162.867, 666.946 167.154, 666.527 171 C 666.071 175.184, 664.993 178.747, 663.500 181 C 662.007 183.253, 660.929 186.816, 660.473 191 C 660.042 194.960, 658.834 199.098, 657.383 201.588 C 656.072 203.836, 655 206.858, 655 208.303 C 655 209.748, 654.278 213.055, 653.397 215.653 C 650.935 222.903, 651.248 223, 677.151 223 C 698.920 223, 698.920 223, 703.960 218.039 C 707.670 214.388, 709 212.327, 709 210.233 C 709 208.669, 710.094 205.906, 711.431 204.093 C 713.136 201.782, 714.075 198.816, 714.573 194.163 C 715.023 189.963, 716.112 186.239, 717.542 184.014 C 718.874 181.942, 720.081 178.038, 720.482 174.500 C 720.864 171.131, 722.187 166.729, 723.500 164.461 C 725.014 161.845, 726.084 157.915, 726.538 153.310 C 727.209 146.505, 727.137 146.146, 724.869 144.982 C 723.566 144.313, 721.774 142.854, 720.887 141.738 C 719.999 140.623, 717.326 138.763, 714.947 137.605 C 706.329 133.411, 704.966 126.113, 711.471 119 C 712.729 117.625, 714.075 114.720, 714.463 112.545 C 714.850 110.369, 716.237 107.319, 717.544 105.765 C 718.851 104.212, 720.228 101.267, 720.605 99.221 C 720.981 97.174, 722.331 94.249, 723.605 92.721 C 724.878 91.192, 726.198 88.267, 726.538 86.221 C 727.473 80.590, 727.841 79.854, 730.005 79.288 C 731.463 78.907, 732 77.923, 732 75.633 C 732.001 72.500, 732.001 72.500, 710.723 72.500 C 699.020 72.500, 688.332 72.725, 686.972 73" stroke="none" fill="#74F1F1" fill-rule="evenodd"/>
</svg>
