<svg preserveAspectRatio="none" width="100%" height="100%" overflow="visible" style="display: block;" viewBox="0 0 125 38" fill="none" xmlns="http://www.w3.org/2000/svg">
<g id="Layer_1" clip-path="url(#clip0_0_25)">
<path id="Vector" d="M39.515 8.08143L33.589 8.05728C31.9282 8.05003 30.4639 9.20469 30.0035 10.886L27.281 21.2658L24.4379 10.886C23.9775 9.20469 22.5132 8.05003 20.8524 8.05728L19.7569 8.06452L18.1793 8.05728C16.5185 8.05003 15.5363 9.20469 15.0759 10.886L12.2328 21.2658L9.51025 10.886C9.04987 9.20469 7.58554 8.05003 5.92478 8.05728L-0.0012052 8.08143L7.84828 36.739L12.2328 36.7209L16.6173 36.739L19.7569 23.5184L22.8964 36.739L27.281 36.7209L31.6655 36.739L39.515 8.08143Z" fill="var(--fill-0, white)"/>
<path id="Vector_2" d="M64.2469 8.51624H68.9798V37.599H60.6313V12.1397C60.6313 10.1395 62.2511 8.51624 64.2469 8.51624Z" fill="var(--fill-0, white)"/>
<path id="Vector_3" d="M99.0604 7.98964H91.9726C89.8177 7.98964 87.7701 8.95347 86.3636 10.6311L81.3861 17.2306V1.0218H76.2447C74.2296 1.0218 72.5954 2.70066 72.5954 4.77084V37.599H81.3849V27.8762L88.5776 37.599H99.0592L88.1292 22.5522L99.0592 7.98843L99.0604 7.98964Z" fill="var(--fill-0, white)"/>
<path id="Vector_4" d="M52.172 9.83275C45.1951 9.83275 39.5391 16.1375 39.5391 23.9158C39.5391 31.694 45.1951 37.9988 52.172 37.9988C59.1489 37.9988 64.805 31.694 64.805 23.9158C64.805 16.1375 59.1489 9.83275 52.172 9.83275ZM52.172 28.6951C49.805 28.6951 47.8851 26.556 47.8851 23.917C47.8851 21.2779 49.8038 19.1389 52.172 19.1389C54.5402 19.1389 56.4589 21.2779 56.4589 23.917C56.4589 26.556 54.5402 28.6951 52.172 28.6951Z" fill="var(--fill-0, white)"/>
<path id="Vector_5" d="M106.795 9.83396C109.505 9.83396 111.702 7.63255 111.702 4.91698C111.702 2.20141 109.505 0 106.795 0C104.086 0 101.889 2.20141 101.889 4.91698C101.889 7.63255 104.086 9.83396 106.795 9.83396Z" fill="var(--fill-0, white)"/>
<path id="Vector_6" d="M120.094 9.83396C122.803 9.83396 125 7.63255 125 4.91698C125 2.20141 122.803 0 120.094 0C117.384 0 115.187 2.20141 115.187 4.91698C115.187 7.63255 117.384 9.83396 120.094 9.83396Z" fill="var(--fill-0, white)"/>
<path id="Vector_7" d="M105.505 13.0226H111.701V37.9275H101.889V16.646C101.889 14.6459 103.509 13.0226 105.505 13.0226Z" fill="var(--fill-0, white)"/>
<path id="Vector_8" d="M118.804 13.0226H125V37.9275H115.188V16.646C115.188 14.6459 116.808 13.0226 118.804 13.0226Z" fill="var(--fill-0, white)"/>
</g>
<defs>
<clipPath id="clip0_0_25">
<rect width="125" height="38" fill="white"/>
</clipPath>
</defs>
</svg>
