<svg width="402" height="297" viewBox="0 0 402 297" fill="none" xmlns="http://www.w3.org/2000/svg">
<g clip-path="url(#clip0_350_3551)">
<path d="M0 30C0 13.4315 13.4315 0 30 0H372C388.569 0 402 13.4315 402 30V302H0V30Z" fill="url(#paint0_linear_350_3551)" fill-opacity="0.4"/>
<circle cx="60.1108" cy="59.1107" r="28" transform="rotate(0.226943 60.1108 59.1107)" fill="url(#paint1_linear_350_3551)"/>
<path d="M121.311 48.939V50.7358H114.241V56.771H112.034V50.7358H105.081V48.939H121.311ZM106.76 43.4702C106.76 41.0288 109.378 39.4858 113.167 39.4858C116.956 39.4858 119.553 41.0288 119.553 43.4702C119.553 45.9116 116.956 47.4546 113.167 47.4546C109.378 47.4546 106.76 45.9116 106.76 43.4702ZM109.026 43.4702C109.026 44.8765 110.667 45.6968 113.167 45.6968C115.667 45.6968 117.288 44.8765 117.288 43.4702C117.288 42.064 115.667 41.2437 113.167 41.2437C110.667 41.2437 109.026 42.064 109.026 43.4702ZM137.093 38.8218V56.7905H134.867V38.8218H137.093ZM123.226 42.1812V40.4038H131.605V47.1226H125.492V50.7358C128.304 50.7163 130.707 50.5991 133.46 50.1304L133.695 51.9077C130.648 52.4351 127.992 52.5522 124.808 52.5522H123.246V45.3647H129.359V42.1812H123.226ZM149.926 39.8765V41.6343H146.196C146.215 43.7241 147.739 45.7749 150.532 46.5952L149.438 48.314C147.387 47.689 145.903 46.3804 145.102 44.7202C144.301 46.5171 142.797 47.9429 140.649 48.6265L139.555 46.8882C142.407 46.0288 143.91 43.8608 143.93 41.6343H140.16V39.8765H149.926ZM142.485 56.5562V49.3687H144.653V51.1851H152.055V49.3687H154.243V56.5562H142.485ZM144.653 54.7593H152.055V52.9038H144.653V54.7593ZM152.016 48.5483V38.8413H154.243V48.5483H152.016Z" fill="white"/>
<path d="M108.719 77.2573C106.258 77.2573 104.778 76.1001 104.778 74.2251C104.778 72.9067 105.51 71.9106 106.77 71.5737C105.672 71.1782 105.027 70.2407 105.027 69.0835C105.027 67.2817 106.433 66.1831 108.719 66.1831C111.004 66.1831 112.395 67.2817 112.395 69.0835C112.395 70.27 111.736 71.2075 110.667 71.5737C111.927 71.9399 112.674 72.9214 112.674 74.2251C112.674 76.1001 111.179 77.2573 108.719 77.2573ZM106.272 74.1079C106.272 75.3384 107.122 75.9976 108.719 75.9976C110.315 75.9976 111.165 75.3384 111.165 74.1079C111.165 72.9214 110.315 72.2769 108.719 72.2769C107.122 72.2769 106.272 72.9214 106.272 74.1079ZM106.521 69.23C106.521 70.3726 107.312 71.0171 108.719 71.0171C110.11 71.0171 110.886 70.3726 110.886 69.23C110.886 68.0728 110.11 67.4429 108.719 67.4429C107.312 67.4429 106.521 68.0728 106.521 69.23ZM125.189 71.9253V73.0679H119.96V75.5142H118.539V73.0679H113.104V71.9253H125.189ZM114.598 78.019V74.3862H116.004V76.8618H123.841V78.019H114.598ZM114.686 70.7534V65.3774H116.092V66.9741H122.186V65.3774H123.607V70.7534H114.686ZM116.092 69.6255H122.186V68.0581H116.092V69.6255ZM139.38 64.9673V74.7231H137.959V69.728H135.454V68.5708H137.959V64.9673H139.38ZM128.364 71.9546C130.415 71.2515 131.66 69.4937 131.66 67.6479V67.1353H128.789V65.9927H135.923V67.1353H133.096V67.6479C133.096 69.3179 134.282 70.9878 136.275 71.6763L135.557 72.7896C134.063 72.2769 132.979 71.2075 132.407 69.8892C131.836 71.354 130.664 72.5259 129.097 73.0972L128.364 71.9546ZM130.781 78.019V73.8735H132.202V76.8618H139.732V78.019H130.781Z" fill="white" fill-opacity="0.5"/>
<rect x="345" y="47.1108" width="25" height="24" rx="12" fill="#74F1F1" fill-opacity="0.7"/>
<path d="M354.549 64.1108V62.8257L357.994 59.1069C358.787 58.2183 359.184 57.4937 359.184 56.7554C359.184 55.812 358.609 55.2925 357.57 55.2925C356.695 55.2925 355.766 55.689 354.809 56.3726L354.262 55.1011C355.055 54.3901 356.395 53.8979 357.652 53.8979C359.635 53.8979 360.893 54.978 360.893 56.6323C360.893 57.8081 360.414 58.7515 359.238 59.9819L356.723 62.6753H361.262V64.1108H354.549Z" fill="white"/>
<circle cx="60.1108" cy="137.111" r="28" transform="rotate(0.226943 60.1108 137.111)" fill="url(#paint2_linear_350_3551)"/>
<path d="M113.616 118.326V120.005H105.003V118.326H108.225V116.861H110.393V118.326H113.616ZM105.589 123.404C105.589 121.685 107.151 120.533 109.319 120.533C111.487 120.533 113.05 121.685 113.05 123.404C113.05 125.142 111.487 126.294 109.319 126.294C107.151 126.294 105.589 125.142 105.589 123.404ZM107.522 129.693V128.013H112.971V126.646H115.178V128.013H120.55V129.693H107.522ZM107.542 123.404C107.542 124.244 108.264 124.751 109.319 124.751C110.393 124.751 111.096 124.244 111.096 123.404C111.096 122.583 110.393 122.076 109.319 122.076C108.264 122.076 107.542 122.583 107.542 123.404ZM108.87 132.623C108.87 131.06 110.784 130.24 114.065 130.24C117.346 130.24 119.26 131.06 119.26 132.623C119.26 134.146 117.346 134.947 114.065 134.947C110.784 134.947 108.87 134.146 108.87 132.623ZM111.233 132.623C111.233 133.228 112.249 133.501 114.065 133.501C115.901 133.501 116.897 133.228 116.897 132.623C116.897 131.978 115.901 131.705 114.065 131.705C112.249 131.705 111.233 131.978 111.233 132.623ZM113.225 122.857V121.099H114.612V117.134H116.702V126.177H114.612V122.857H113.225ZM118.186 127.095V116.841H120.296V127.095H118.186ZM136.371 121.783V123.58H124.515V121.783H129.359V119.498H131.566V121.783H136.371ZM125.882 128.052C125.882 126.06 127.816 124.654 130.472 124.654C133.109 124.654 135.043 126.06 135.043 128.052C135.043 130.064 133.109 131.47 130.472 131.47C127.816 131.47 125.882 130.064 125.882 128.052ZM128.148 128.052C128.148 129.029 129.144 129.615 130.472 129.615C131.781 129.615 132.796 129.029 132.796 128.052C132.796 127.076 131.781 126.49 130.472 126.49C129.144 126.49 128.148 127.076 128.148 128.052ZM153.539 121.783V123.58H141.684V121.783H146.528V119.498H148.735V121.783H153.539ZM143.051 128.052C143.051 126.06 144.985 124.654 147.641 124.654C150.278 124.654 152.211 126.06 152.211 128.052C152.211 130.064 150.278 131.47 147.641 131.47C144.985 131.47 143.051 130.064 143.051 128.052ZM145.317 128.052C145.317 129.029 146.313 129.615 147.641 129.615C148.95 129.615 149.965 129.029 149.965 128.052C149.965 127.076 148.95 126.49 147.641 126.49C146.313 126.49 145.317 127.076 145.317 128.052ZM170.708 121.783V123.58H158.853V121.783H163.696V119.498H165.903V121.783H170.708ZM160.22 128.052C160.22 126.06 162.153 124.654 164.81 124.654C167.446 124.654 169.38 126.06 169.38 128.052C169.38 130.064 167.446 131.47 164.81 131.47C162.153 131.47 160.22 130.064 160.22 128.052ZM162.485 128.052C162.485 129.029 163.482 129.615 164.81 129.615C166.118 129.615 167.134 129.029 167.134 128.052C167.134 127.076 166.118 126.49 164.81 126.49C163.482 126.49 162.485 127.076 162.485 128.052Z" fill="white"/>
<path d="M115.237 142.953V148.358H117.332V149.544H115.237V156.297H113.816V142.953H115.237ZM104.851 146.19V145.033H108.089V143.128H109.51V145.033H112.688V146.19H104.851ZM105.525 150.292C105.525 148.475 106.917 147.186 108.821 147.186C110.711 147.186 112.102 148.475 112.102 150.292C112.102 152.108 110.711 153.382 108.821 153.382C106.917 153.382 105.525 152.108 105.525 150.292ZM106.887 150.292C106.887 151.434 107.693 152.21 108.821 152.21C109.934 152.21 110.74 151.434 110.74 150.292C110.74 149.134 109.934 148.358 108.821 148.358C107.693 148.358 106.887 149.134 106.887 150.292ZM128.236 143.451V147.083H120.487V148.607H128.544V149.75H119.051V146H126.8V144.593H119.022V143.451H128.236ZM117.586 152.167V151.009H129.671V152.167H124.31V156.312H122.904V152.167H117.586ZM143.862 142.967V152.723H142.442V147.728H139.937V146.571H142.442V142.967H143.862ZM132.847 149.955C134.898 149.251 136.143 147.494 136.143 145.648V145.135H133.272V143.993H140.405V145.135H137.578V145.648C137.578 147.318 138.765 148.988 140.757 149.676L140.039 150.79C138.545 150.277 137.461 149.208 136.89 147.889C136.319 149.354 135.147 150.526 133.579 151.097L132.847 149.955ZM135.264 156.019V151.874H136.685V154.862H144.214V156.019H135.264Z" fill="white" fill-opacity="0.5"/>
<rect x="74" y="201" width="181" height="68" rx="34" fill="white" fill-opacity="0.15"/>
<g clip-path="url(#clip1_350_3551)">
<path d="M114.333 244.333V237.667H119.667V244.333C119.667 245.067 120.267 245.667 121 245.667H125C125.733 245.667 126.333 245.067 126.333 244.333V235H128.6C129.213 235 129.507 234.24 129.04 233.84L117.893 223.8C117.387 223.347 116.613 223.347 116.107 223.8L104.96 233.84C104.507 234.24 104.787 235 105.4 235H107.667V244.333C107.667 245.067 108.267 245.667 109 245.667H113C113.733 245.667 114.333 245.067 114.333 244.333Z" fill="white"/>
</g>
<path d="M157.333 233.875C156.712 233.875 156.208 234.379 156.208 235C156.208 235.621 156.712 236.125 157.333 236.125V235V233.875ZM167.333 236.125C167.955 236.125 168.458 235.621 168.458 235C168.458 234.379 167.955 233.875 167.333 233.875V235V236.125ZM167.333 233.875C166.712 233.875 166.208 234.379 166.208 235C166.208 235.621 166.712 236.125 167.333 236.125V235V233.875ZM177.333 236.125C177.955 236.125 178.458 235.621 178.458 235C178.458 234.379 177.955 233.875 177.333 233.875V235V236.125ZM168.459 235C168.459 234.379 167.955 233.875 167.334 233.875C166.712 233.875 166.209 234.379 166.209 235H167.334H168.459ZM166.209 245C166.209 245.621 166.712 246.125 167.334 246.125C167.955 246.125 168.459 245.621 168.459 245H167.334H166.209ZM166.209 235C166.209 235.621 166.712 236.125 167.334 236.125C167.955 236.125 168.459 235.621 168.459 235H167.334H166.209ZM168.459 225C168.459 224.379 167.955 223.875 167.334 223.875C166.712 223.875 166.209 224.379 166.209 225H167.334H168.459ZM157.333 235V236.125H167.333V235V233.875H157.333V235ZM167.333 235V236.125H177.333V235V233.875H167.333V235ZM167.334 235C167.334 235 166.209 235 166.209 235C166.209 235 166.209 235 166.209 235C166.209 235 166.209 235 166.209 235C166.209 235 166.209 235 166.209 235C166.209 235 166.209 235 166.209 235C166.209 235 166.209 235 166.209 235C166.209 235 166.209 235 166.209 235C166.209 235 166.209 235 166.209 235C166.209 235 166.209 235 166.209 235C166.209 235 166.209 235 166.209 235C166.209 235 166.209 235 166.209 235C166.209 235 166.209 235 166.209 235C166.209 235 166.209 235 166.209 235C166.209 235 166.209 235 166.209 235C166.209 235 166.209 235 166.209 235C166.209 235 166.209 235 166.209 235C166.209 235 166.209 235 166.209 235C166.209 235 166.209 235 166.209 235C166.209 235 166.209 235 166.209 235.001C166.209 235.001 166.209 235.001 166.209 235.001C166.209 235.001 166.209 235.001 166.209 235.001C166.209 235.001 166.209 235.001 166.209 235.001C166.209 235.001 166.209 235.001 166.209 235.001C166.209 235.001 166.209 235.001 166.209 235.001C166.209 235.001 166.209 235.001 166.209 235.001C166.209 235.001 166.209 235.001 166.209 235.001C166.209 235.001 166.209 235.001 166.209 235.001C166.209 235.002 166.209 235.002 166.209 235.002C166.209 235.002 166.209 235.002 166.209 235.002C166.209 235.002 166.209 235.002 166.209 235.002C166.209 235.002 166.209 235.002 166.209 235.002C166.209 235.002 166.209 235.002 166.209 235.002C166.209 235.003 166.209 235.003 166.209 235.003C166.209 235.003 166.209 235.003 166.209 235.003C166.209 235.003 166.209 235.003 166.209 235.003C166.209 235.003 166.209 235.003 166.209 235.003C166.209 235.004 166.209 235.004 166.209 235.004C166.209 235.004 166.209 235.004 166.209 235.004C166.209 235.004 166.209 235.004 166.209 235.004C166.209 235.005 166.209 235.005 166.209 235.005C166.209 235.005 166.209 235.005 166.209 235.005C166.209 235.005 166.209 235.005 166.209 235.006C166.209 235.006 166.209 235.006 166.209 235.006C166.209 235.006 166.209 235.006 166.209 235.006C166.209 235.006 166.209 235.007 166.209 235.007C166.209 235.007 166.209 235.007 166.209 235.007C166.209 235.007 166.209 235.008 166.209 235.008C166.209 235.008 166.209 235.008 166.209 235.008C166.209 235.008 166.209 235.009 166.209 235.009C166.209 235.009 166.209 235.009 166.209 235.009C166.209 235.009 166.209 235.01 166.209 235.01C166.209 235.01 166.209 235.01 166.209 235.01C166.209 235.011 166.209 235.011 166.209 235.011C166.209 235.011 166.209 235.012 166.209 235.012C166.209 235.012 166.209 235.012 166.209 235.012C166.209 235.013 166.209 235.013 166.209 235.013C166.209 235.013 166.209 235.014 166.209 235.014C166.209 235.014 166.209 235.014 166.209 235.015C166.209 235.015 166.209 235.015 166.209 235.015C166.209 235.016 166.209 235.016 166.209 235.016C166.209 235.016 166.209 235.017 166.209 235.017C166.209 235.017 166.209 235.017 166.209 235.018C166.209 235.018 166.209 235.018 166.209 235.019C166.209 235.019 166.209 235.019 166.209 235.02C166.209 235.02 166.209 235.02 166.209 235.02C166.209 235.021 166.209 235.021 166.209 235.021C166.209 235.022 166.209 235.022 166.209 235.022C166.209 235.023 166.209 235.023 166.209 235.023C166.209 235.024 166.209 235.024 166.209 235.024C166.209 235.025 166.209 235.025 166.209 235.026C166.209 235.026 166.209 235.026 166.209 235.027C166.209 235.027 166.209 235.027 166.209 235.028C166.209 235.028 166.209 235.029 166.209 235.029C166.209 235.029 166.209 235.03 166.209 235.03C166.209 235.031 166.209 235.031 166.209 235.031C166.209 235.032 166.209 235.032 166.209 235.033C166.209 235.033 166.209 235.034 166.209 235.034C166.209 235.034 166.209 235.035 166.209 235.035C166.209 235.036 166.209 235.036 166.209 235.037C166.209 235.037 166.209 235.038 166.209 235.038C166.209 235.039 166.209 235.039 166.209 235.04C166.209 235.04 166.209 235.041 166.209 235.041C166.209 235.042 166.209 235.042 166.209 235.043C166.209 235.043 166.209 235.044 166.209 235.044C166.209 235.045 166.209 235.045 166.209 235.046C166.209 235.046 166.209 235.047 166.209 235.047C166.209 235.048 166.209 235.048 166.209 235.049C166.209 235.05 166.209 235.05 166.209 235.051C166.209 235.051 166.209 235.052 166.209 235.053C166.209 235.053 166.209 235.054 166.209 235.054C166.209 235.055 166.209 235.056 166.209 235.056C166.209 235.057 166.209 235.057 166.209 235.058C166.209 235.059 166.209 235.059 166.209 235.06C166.209 235.061 166.209 235.061 166.209 235.062C166.209 235.063 166.209 235.063 166.209 235.064C166.209 235.065 166.209 235.065 166.209 235.066C166.209 235.067 166.209 235.067 166.209 235.068C166.209 235.069 166.209 235.069 166.209 235.07C166.209 235.071 166.209 235.072 166.209 235.072C166.209 235.073 166.209 235.074 166.209 235.075C166.209 235.075 166.209 235.076 166.209 235.077C166.209 235.078 166.209 235.078 166.209 235.079C166.209 235.08 166.209 235.081 166.209 235.081C166.209 235.082 166.209 235.083 166.209 235.084C166.209 235.085 166.209 235.085 166.209 235.086C166.209 235.087 166.209 235.088 166.209 235.089C166.209 235.09 166.209 235.09 166.209 235.091C166.209 235.092 166.209 235.093 166.209 235.094C166.209 235.095 166.209 235.096 166.209 235.096C166.209 235.097 166.209 235.098 166.209 235.099C166.209 235.1 166.209 235.101 166.209 235.102C166.209 235.103 166.209 235.104 166.209 235.105C166.209 235.106 166.209 235.107 166.209 235.108C166.209 235.108 166.209 235.109 166.209 235.11C166.209 235.111 166.209 235.112 166.209 235.113C166.209 235.114 166.209 235.115 166.209 235.116C166.209 235.117 166.209 235.118 166.209 235.119C166.209 235.12 166.209 235.121 166.209 235.122C166.209 235.123 166.209 235.124 166.209 235.126C166.209 235.127 166.209 235.128 166.209 235.129C166.209 235.13 166.209 235.131 166.209 235.132C166.209 235.133 166.209 235.134 166.209 235.135C166.209 235.136 166.209 235.138 166.209 235.139C166.209 235.14 166.209 235.141 166.209 235.142C166.209 235.143 166.209 235.144 166.209 235.146C166.209 235.147 166.209 235.148 166.209 235.149C166.209 235.15 166.209 235.151 166.209 235.153C166.209 235.154 166.209 235.155 166.209 235.156C166.209 235.157 166.209 235.159 166.209 235.16C166.209 235.161 166.209 235.162 166.209 235.164C166.209 235.165 166.209 235.166 166.209 235.167C166.209 235.169 166.209 235.17 166.209 235.171C166.209 235.173 166.209 235.174 166.209 235.175C166.209 235.177 166.209 235.178 166.209 235.179C166.209 235.181 166.209 235.182 166.209 235.183C166.209 235.185 166.209 235.186 166.209 235.187C166.209 235.189 166.209 235.19 166.209 235.192C166.209 235.193 166.209 235.194 166.209 235.196C166.209 235.197 166.209 235.199 166.209 235.2C166.209 235.202 166.209 235.203 166.209 235.204C166.209 235.206 166.209 235.207 166.209 235.209C166.209 235.21 166.209 235.212 166.209 235.213C166.209 235.215 166.209 235.216 166.209 235.218C166.209 235.219 166.209 235.221 166.209 235.222C166.209 235.224 166.209 235.226 166.209 235.227C166.209 235.229 166.209 235.23 166.209 235.232C166.209 235.233 166.209 235.235 166.209 235.237C166.209 235.238 166.209 235.24 166.209 235.242C166.209 235.243 166.209 235.245 166.209 235.246C166.209 235.248 166.209 235.25 166.209 235.251C166.209 235.253 166.209 235.255 166.209 235.257C166.209 235.258 166.209 235.26 166.209 235.262C166.209 235.263 166.209 235.265 166.209 235.267C166.209 235.269 166.209 235.27 166.209 235.272C166.209 235.274 166.209 235.276 166.209 235.277C166.209 235.279 166.209 235.281 166.209 235.283C166.209 235.285 166.209 235.286 166.209 235.288C166.209 235.29 166.209 235.292 166.209 235.294C166.209 235.296 166.209 235.298 166.209 235.299C166.209 235.301 166.209 235.303 166.209 235.305C166.209 235.307 166.209 235.309 166.209 235.311C166.209 235.313 166.209 235.315 166.209 235.317C166.209 235.319 166.209 235.321 166.209 235.323C166.209 235.325 166.209 235.327 166.209 235.329C166.209 235.331 166.209 235.333 166.209 235.335C166.209 235.337 166.209 235.339 166.209 235.341C166.209 235.343 166.209 235.345 166.209 235.347C166.209 235.349 166.209 235.351 166.209 235.353C166.209 235.355 166.209 235.357 166.209 235.36C166.209 235.362 166.209 235.364 166.209 235.366C166.209 235.368 166.209 235.37 166.209 235.373C166.209 235.375 166.209 235.377 166.209 235.379C166.209 235.381 166.209 235.384 166.209 235.386C166.209 235.388 166.209 235.39 166.209 235.392C166.209 235.395 166.209 235.397 166.209 235.399C166.209 235.402 166.209 235.404 166.209 235.406C166.209 235.408 166.209 235.411 166.209 235.413C166.209 235.415 166.209 235.418 166.209 235.42C166.209 235.423 166.209 235.425 166.209 235.427C166.209 235.43 166.209 235.432 166.209 235.435C166.209 235.437 166.209 235.439 166.209 235.442C166.209 235.444 166.209 235.447 166.209 235.449C166.209 235.452 166.209 235.454 166.209 235.457C166.209 235.459 166.209 235.462 166.209 235.464C166.209 235.467 166.209 235.469 166.209 235.472C166.209 235.474 166.209 235.477 166.209 235.479C166.209 235.482 166.209 235.485 166.209 235.487C166.209 235.49 166.209 235.492 166.209 235.495C166.209 235.498 166.209 235.5 166.209 235.503C166.209 235.506 166.209 235.508 166.209 235.511C166.209 235.514 166.209 235.516 166.209 235.519C166.209 235.522 166.209 235.525 166.209 235.527C166.209 235.53 166.209 235.533 166.209 235.536C166.209 235.538 166.209 235.541 166.209 235.544C166.209 235.547 166.209 235.55 166.209 235.552C166.209 235.555 166.209 235.558 166.209 235.561C166.209 235.564 166.209 235.567 166.209 235.57C166.209 235.573 166.209 235.575 166.209 235.578C166.209 235.581 166.209 235.584 166.209 235.587C166.209 235.59 166.209 235.593 166.209 235.596C166.209 235.599 166.209 235.602 166.209 235.605C166.209 235.608 166.209 235.611 166.209 235.614C166.209 235.617 166.209 235.62 166.209 235.623C166.209 235.626 166.209 235.629 166.209 235.633C166.209 235.636 166.209 235.639 166.209 235.642C166.209 235.645 166.209 235.648 166.209 235.651C166.209 235.654 166.209 235.658 166.209 235.661C166.209 235.664 166.209 235.667 166.209 235.67C166.209 235.674 166.209 235.677 166.209 235.68C166.209 235.683 166.209 235.687 166.209 235.69C166.209 235.693 166.209 235.697 166.209 235.7C166.209 235.703 166.209 235.707 166.209 235.71C166.209 235.713 166.209 235.717 166.209 235.72C166.209 235.723 166.209 235.727 166.209 235.73C166.209 235.734 166.209 235.737 166.209 235.74C166.209 235.744 166.209 235.747 166.209 235.751C166.209 235.754 166.209 235.758 166.209 235.761C166.209 235.765 166.209 235.768 166.209 235.772C166.209 235.775 166.209 235.779 166.209 235.783C166.209 235.786 166.209 235.79 166.209 235.793C166.209 235.797 166.209 235.801 166.209 235.804C166.209 235.808 166.209 235.811 166.209 235.815C166.209 235.819 166.209 235.823 166.209 235.826C166.209 235.83 166.209 235.834 166.209 235.837C166.209 235.841 166.209 235.845 166.209 235.849C166.209 235.852 166.209 235.856 166.209 235.86C166.209 235.864 166.209 235.868 166.209 235.872C166.209 235.875 166.209 235.879 166.209 235.883C166.209 235.887 166.209 235.891 166.209 235.895C166.209 235.899 166.209 235.903 166.209 235.907C166.209 235.91 166.209 235.914 166.209 235.918C166.209 235.922 166.209 235.926 166.209 235.93C166.209 235.934 166.209 235.938 166.209 235.942C166.209 235.946 166.209 235.951 166.209 235.955C166.209 235.959 166.209 235.963 166.209 235.967C166.209 235.971 166.209 235.975 166.209 235.979C166.209 235.983 166.209 235.988 166.209 235.992C166.209 235.996 166.209 236 166.209 236.004C166.209 236.009 166.209 236.013 166.209 236.017C166.209 236.021 166.209 236.026 166.209 236.03C166.209 236.034 166.209 236.039 166.209 236.043C166.209 236.047 166.209 236.052 166.209 236.056C166.209 236.06 166.209 236.065 166.209 236.069C166.209 236.073 166.209 236.078 166.209 236.082C166.209 236.087 166.209 236.091 166.209 236.096C166.209 236.1 166.209 236.105 166.209 236.109C166.209 236.114 166.209 236.118 166.209 236.123C166.209 236.127 166.209 236.132 166.209 236.136C166.209 236.141 166.209 236.146 166.209 236.15C166.209 236.155 166.209 236.159 166.209 236.164C166.209 236.169 166.209 236.173 166.209 236.178C166.209 236.183 166.209 236.188 166.209 236.192C166.209 236.197 166.209 236.202 166.209 236.207C166.209 236.211 166.209 236.216 166.209 236.221C166.209 236.226 166.209 236.231 166.209 236.235C166.209 236.24 166.209 236.245 166.209 236.25C166.209 236.255 166.209 236.26 166.209 236.265C166.209 236.27 166.209 236.275 166.209 236.28C166.209 236.284 166.209 236.289 166.209 236.294C166.209 236.299 166.209 236.304 166.209 236.31C166.209 236.315 166.209 236.32 166.209 236.325C166.209 236.33 166.209 236.335 166.209 236.34C166.209 236.345 166.209 236.35 166.209 236.355C166.209 236.361 166.209 236.366 166.209 236.371C166.209 236.376 166.209 236.381 166.209 236.387C166.209 236.392 166.209 236.397 166.209 236.402C166.209 236.408 166.209 236.413 166.209 236.418C166.209 236.423 166.209 236.429 166.209 236.434C166.209 236.44 166.209 236.445 166.209 236.45C166.209 236.456 166.209 236.461 166.209 236.466C166.209 236.472 166.209 236.477 166.209 236.483C166.209 236.488 166.209 236.494 166.209 236.499C166.209 236.505 166.209 236.51 166.209 236.516C166.209 236.521 166.209 236.527 166.209 236.533C166.209 236.538 166.209 236.544 166.209 236.549C166.209 236.555 166.209 236.561 166.209 236.566C166.209 236.572 166.209 236.578 166.209 236.584C166.209 236.589 166.209 236.595 166.209 236.601C166.209 236.607 166.209 236.612 166.209 236.618C166.209 236.624 166.209 236.63 166.209 236.636C166.209 236.641 166.209 236.647 166.209 236.653C166.209 236.659 166.209 236.665 166.209 236.671C166.209 236.677 166.209 236.683 166.209 236.689C166.209 236.695 166.209 236.701 166.209 236.707C166.209 236.713 166.209 236.719 166.209 236.725C166.209 236.731 166.209 236.737 166.209 236.743C166.209 236.749 166.209 236.755 166.209 236.761C166.209 236.767 166.209 236.774 166.209 236.78C166.209 236.786 166.209 236.792 166.209 236.798C166.209 236.805 166.209 236.811 166.209 236.817C166.209 236.823 166.209 236.83 166.209 236.836C166.209 236.842 166.209 236.849 166.209 236.855C166.209 236.861 166.209 236.868 166.209 236.874C166.209 236.88 166.209 236.887 166.209 236.893C166.209 236.9 166.209 236.906 166.209 236.913C166.209 236.919 166.209 236.926 166.209 236.932C166.209 236.939 166.209 236.945 166.209 236.952C166.209 236.958 166.209 236.965 166.209 236.972C166.209 236.978 166.209 236.985 166.209 236.992C166.209 236.998 166.209 237.005 166.209 237.012C166.209 237.018 166.209 237.025 166.209 237.032C166.209 237.039 166.209 237.045 166.209 237.052C166.209 237.059 166.209 237.066 166.209 237.073C166.209 237.079 166.209 237.086 166.209 237.093C166.209 237.1 166.209 237.107 166.209 237.114C166.209 237.121 166.209 237.128 166.209 237.135C166.209 237.142 166.209 237.149 166.209 237.156C166.209 237.163 166.209 237.17 166.209 237.177C166.209 237.184 166.209 237.191 166.209 237.198C166.209 237.205 166.209 237.212 166.209 237.22C166.209 237.227 166.209 237.234 166.209 237.241C166.209 237.248 166.209 237.256 166.209 237.263C166.209 237.27 166.209 237.277 166.209 237.285C166.209 237.292 166.209 237.299 166.209 237.307C166.209 237.314 166.209 237.321 166.209 237.329C166.209 237.336 166.209 237.344 166.209 237.351C166.209 237.358 166.209 237.366 166.209 237.373C166.209 237.381 166.209 237.388 166.209 237.396C166.209 237.403 166.209 237.411 166.209 237.419C166.209 237.426 166.209 237.434 166.209 237.441C166.209 237.449 166.209 237.457 166.209 237.464C166.209 237.472 166.209 237.48 166.209 237.487C166.209 237.495 166.209 237.503 166.209 237.511C166.209 237.518 166.209 237.526 166.209 237.534C166.209 237.542 166.209 237.55 166.209 237.558C166.209 237.566 166.209 237.573 166.209 237.581C166.209 237.589 166.209 237.597 166.209 237.605C166.209 237.613 166.209 237.621 166.209 237.629C166.209 237.637 166.209 237.645 166.209 237.653C166.209 237.661 166.209 237.669 166.209 237.678C166.209 237.686 166.209 237.694 166.209 237.702C166.209 237.71 166.209 237.718 166.209 237.726C166.209 237.735 166.209 237.743 166.209 237.751C166.209 237.759 166.209 237.768 166.209 237.776C166.209 237.784 166.209 237.793 166.209 237.801C166.209 237.809 166.209 237.818 166.209 237.826C166.209 237.835 166.209 237.843 166.209 237.852C166.209 237.86 166.209 237.868 166.209 237.877C166.209 237.886 166.209 237.894 166.209 237.903C166.209 237.911 166.209 237.92 166.209 237.928C166.209 237.937 166.209 237.946 166.209 237.954C166.209 237.963 166.209 237.972 166.209 237.98C166.209 237.989 166.209 237.998 166.209 238.007C166.209 238.015 166.209 238.024 166.209 238.033C166.209 238.042 166.209 238.051 166.209 238.059C166.209 238.068 166.209 238.077 166.209 238.086C166.209 238.095 166.209 238.104 166.209 238.113C166.209 238.122 166.209 238.131 166.209 238.14C166.209 238.149 166.209 238.158 166.209 238.167C166.209 238.176 166.209 238.185 166.209 238.194C166.209 238.204 166.209 238.213 166.209 238.222C166.209 238.231 166.209 238.24 166.209 238.25C166.209 238.259 166.209 238.268 166.209 238.277C166.209 238.287 166.209 238.296 166.209 238.305C166.209 238.315 166.209 238.324 166.209 238.333C166.209 238.343 166.209 238.352 166.209 238.362C166.209 238.371 166.209 238.38 166.209 238.39C166.209 238.399 166.209 238.409 166.209 238.419C166.209 238.428 166.209 238.438 166.209 238.447C166.209 238.457 166.209 238.466 166.209 238.476C166.209 238.486 166.209 238.495 166.209 238.505C166.209 238.515 166.209 238.525 166.209 238.534C166.209 238.544 166.209 238.554 166.209 238.564C166.209 238.574 166.209 238.583 166.209 238.593C166.209 238.603 166.209 238.613 166.209 238.623C166.209 238.633 166.209 238.643 166.209 238.653C166.209 238.663 166.209 238.673 166.209 238.683C166.209 238.693 166.209 238.703 166.209 238.713C166.209 238.723 166.209 238.733 166.209 238.743C166.209 238.754 166.209 238.764 166.209 238.774C166.209 238.784 166.209 238.794 166.209 238.805C166.209 238.815 166.209 238.825 166.209 238.835C166.209 238.846 166.209 238.856 166.209 238.866C166.209 238.877 166.209 238.887 166.209 238.898C166.209 238.908 166.209 238.919 166.209 238.929C166.209 238.939 166.209 238.95 166.209 238.961C166.209 238.971 166.209 238.982 166.209 238.992C166.209 239.003 166.209 239.013 166.209 239.024C166.209 239.035 166.209 239.045 166.209 239.056C166.209 239.067 166.209 239.078 166.209 239.088C166.209 239.099 166.209 239.11 166.209 239.121C166.209 239.131 166.209 239.142 166.209 239.153C166.209 239.164 166.209 239.175 166.209 239.186C166.209 239.197 166.209 239.208 166.209 239.219C166.209 239.23 166.209 239.241 166.209 239.252C166.209 239.263 166.209 239.274 166.209 239.285C166.209 239.296 166.209 239.307 166.209 239.318C166.209 239.33 166.209 239.341 166.209 239.352C166.209 239.363 166.209 239.374 166.209 239.386C166.209 239.397 166.209 239.408 166.209 239.42C166.209 239.431 166.209 239.442 166.209 239.454C166.209 239.465 166.209 239.477 166.209 239.488C166.209 239.499 166.209 239.511 166.209 239.522C166.209 239.534 166.209 239.545 166.209 239.557C166.209 239.569 166.209 239.58 166.209 239.592C166.209 239.603 166.209 239.615 166.209 239.627C166.209 239.638 166.209 239.65 166.209 239.662C166.209 239.674 166.209 239.685 166.209 239.697C166.209 239.709 166.209 239.721 166.209 239.733C166.209 239.745 166.209 239.756 166.209 239.768C166.209 239.78 166.209 239.792 166.209 239.804C166.209 239.816 166.209 239.828 166.209 239.84C166.209 239.852 166.209 239.864 166.209 239.876C166.209 239.889 166.209 239.901 166.209 239.913C166.209 239.925 166.209 239.937 166.209 239.949C166.209 239.962 166.209 239.974 166.209 239.986C166.209 239.998 166.209 240.011 166.209 240.023C166.209 240.035 166.209 240.048 166.209 240.06C166.209 240.073 166.209 240.085 166.209 240.098C166.209 240.11 166.209 240.122 166.209 240.135C166.209 240.148 166.209 240.16 166.209 240.173C166.209 240.185 166.209 240.198 166.209 240.211C166.209 240.223 166.209 240.236 166.209 240.249C166.209 240.261 166.209 240.274 166.209 240.287C166.209 240.3 166.209 240.312 166.209 240.325C166.209 240.338 166.209 240.351 166.209 240.364C166.209 240.377 166.209 240.39 166.209 240.403C166.209 240.415 166.209 240.428 166.209 240.442C166.209 240.455 166.209 240.468 166.209 240.481C166.209 240.494 166.209 240.507 166.209 240.52C166.209 240.533 166.209 240.546 166.209 240.56C166.209 240.573 166.209 240.586 166.209 240.599C166.209 240.612 166.209 240.626 166.209 240.639C166.209 240.652 166.209 240.666 166.209 240.679C166.209 240.693 166.209 240.706 166.209 240.719C166.209 240.733 166.209 240.746 166.209 240.76C166.209 240.773 166.209 240.787 166.209 240.801C166.209 240.814 166.209 240.828 166.209 240.841C166.209 240.855 166.209 240.869 166.209 240.883C166.209 240.896 166.209 240.91 166.209 240.924C166.209 240.938 166.209 240.951 166.209 240.965C166.209 240.979 166.209 240.993 166.209 241.007C166.209 241.021 166.209 241.035 166.209 241.049C166.209 241.063 166.209 241.077 166.209 241.091C166.209 241.105 166.209 241.119 166.209 241.133C166.209 241.147 166.209 241.161 166.209 241.175C166.209 241.189 166.209 241.204 166.209 241.218C166.209 241.232 166.209 241.246 166.209 241.261C166.209 241.275 166.209 241.289 166.209 241.304C166.209 241.318 166.209 241.332 166.209 241.347C166.209 241.361 166.209 241.376 166.209 241.39C166.209 241.405 166.209 241.419 166.209 241.434C166.209 241.448 166.209 241.463 166.209 241.477C166.209 241.492 166.209 241.507 166.209 241.521C166.209 241.536 166.209 241.551 166.209 241.566C166.209 241.58 166.209 241.595 166.209 241.61C166.209 241.625 166.209 241.64 166.209 241.654C166.209 241.669 166.209 241.684 166.209 241.699C166.209 241.714 166.209 241.729 166.209 241.744C166.209 241.759 166.209 241.774 166.209 241.789C166.209 241.804 166.209 241.82 166.209 241.835C166.209 241.85 166.209 241.865 166.209 241.88C166.209 241.895 166.209 241.911 166.209 241.926C166.209 241.941 166.209 241.957 166.209 241.972C166.209 241.987 166.209 242.003 166.209 242.018C166.209 242.034 166.209 242.049 166.209 242.065C166.209 242.08 166.209 242.096 166.209 242.111C166.209 242.127 166.209 242.142 166.209 242.158C166.209 242.174 166.209 242.189 166.209 242.205C166.209 242.221 166.209 242.236 166.209 242.252C166.209 242.268 166.209 242.284 166.209 242.299C166.209 242.315 166.209 242.331 166.209 242.347C166.209 242.363 166.209 242.379 166.209 242.395C166.209 242.411 166.209 242.427 166.209 242.443C166.209 242.459 166.209 242.475 166.209 242.491C166.209 242.507 166.209 242.523 166.209 242.54C166.209 242.556 166.209 242.572 166.209 242.588C166.209 242.604 166.209 242.621 166.209 242.637C166.209 242.653 166.209 242.67 166.209 242.686C166.209 242.703 166.209 242.719 166.209 242.735C166.209 242.752 166.209 242.768 166.209 242.785C166.209 242.801 166.209 242.818 166.209 242.835C166.209 242.851 166.209 242.868 166.209 242.884C166.209 242.901 166.209 242.918 166.209 242.935C166.209 242.951 166.209 242.968 166.209 242.985C166.209 243.002 166.209 243.019 166.209 243.035C166.209 243.052 166.209 243.069 166.209 243.086C166.209 243.103 166.209 243.12 166.209 243.137C166.209 243.154 166.209 243.171 166.209 243.188C166.209 243.205 166.209 243.223 166.209 243.24C166.209 243.257 166.209 243.274 166.209 243.291C166.209 243.309 166.209 243.326 166.209 243.343C166.209 243.36 166.209 243.378 166.209 243.395C166.209 243.413 166.209 243.43 166.209 243.447C166.209 243.465 166.209 243.482 166.209 243.5C166.209 243.517 166.209 243.535 166.209 243.553C166.209 243.57 166.209 243.588 166.209 243.606C166.209 243.623 166.209 243.641 166.209 243.659C166.209 243.676 166.209 243.694 166.209 243.712C166.209 243.73 166.209 243.748 166.209 243.766C166.209 243.783 166.209 243.801 166.209 243.819C166.209 243.837 166.209 243.855 166.209 243.873C166.209 243.891 166.209 243.909 166.209 243.928C166.209 243.946 166.209 243.964 166.209 243.982C166.209 244 166.209 244.018 166.209 244.037C166.209 244.055 166.209 244.073 166.209 244.091C166.209 244.11 166.209 244.128 166.209 244.147C166.209 244.165 166.209 244.183 166.209 244.202C166.209 244.22 166.209 244.239 166.209 244.257C166.209 244.276 166.209 244.295 166.209 244.313C166.209 244.332 166.209 244.351 166.209 244.369C166.209 244.388 166.209 244.407 166.209 244.425C166.209 244.444 166.209 244.463 166.209 244.482C166.209 244.501 166.209 244.52 166.209 244.539C166.209 244.557 166.209 244.576 166.209 244.595C166.209 244.614 166.209 244.633 166.209 244.653C166.209 244.672 166.209 244.691 166.209 244.71C166.209 244.729 166.209 244.748 166.209 244.767C166.209 244.787 166.209 244.806 166.209 244.825C166.209 244.845 166.209 244.864 166.209 244.883C166.209 244.903 166.209 244.922 166.209 244.942C166.209 244.961 166.209 244.98 166.209 245H167.334H168.459C168.459 244.98 168.459 244.961 168.459 244.942C168.459 244.922 168.459 244.903 168.459 244.883C168.459 244.864 168.459 244.845 168.459 244.825C168.459 244.806 168.459 244.787 168.459 244.767C168.459 244.748 168.459 244.729 168.459 244.71C168.459 244.691 168.459 244.672 168.459 244.653C168.459 244.633 168.459 244.614 168.459 244.595C168.459 244.576 168.459 244.557 168.459 244.539C168.459 244.52 168.459 244.501 168.459 244.482C168.459 244.463 168.459 244.444 168.459 244.425C168.459 244.407 168.459 244.388 168.459 244.369C168.459 244.351 168.459 244.332 168.459 244.313C168.459 244.295 168.459 244.276 168.459 244.257C168.459 244.239 168.459 244.22 168.459 244.202C168.459 244.183 168.459 244.165 168.459 244.147C168.459 244.128 168.459 244.11 168.459 244.091C168.459 244.073 168.459 244.055 168.459 244.037C168.459 244.018 168.459 244 168.459 243.982C168.459 243.964 168.459 243.946 168.459 243.928C168.459 243.909 168.459 243.891 168.459 243.873C168.459 243.855 168.459 243.837 168.459 243.819C168.459 243.801 168.459 243.783 168.459 243.766C168.459 243.748 168.459 243.73 168.459 243.712C168.459 243.694 168.459 243.676 168.459 243.659C168.459 243.641 168.459 243.623 168.459 243.606C168.459 243.588 168.459 243.57 168.459 243.553C168.459 243.535 168.459 243.517 168.459 243.5C168.459 243.482 168.459 243.465 168.459 243.447C168.459 243.43 168.459 243.413 168.459 243.395C168.459 243.378 168.459 243.36 168.459 243.343C168.459 243.326 168.459 243.309 168.459 243.291C168.459 243.274 168.459 243.257 168.459 243.24C168.459 243.223 168.459 243.205 168.459 243.188C168.459 243.171 168.459 243.154 168.459 243.137C168.459 243.12 168.459 243.103 168.459 243.086C168.459 243.069 168.459 243.052 168.459 243.035C168.459 243.019 168.459 243.002 168.459 242.985C168.459 242.968 168.459 242.951 168.459 242.935C168.459 242.918 168.459 242.901 168.459 242.884C168.459 242.868 168.459 242.851 168.459 242.835C168.459 242.818 168.459 242.801 168.459 242.785C168.459 242.768 168.459 242.752 168.459 242.735C168.459 242.719 168.459 242.703 168.459 242.686C168.459 242.67 168.459 242.653 168.459 242.637C168.459 242.621 168.459 242.604 168.459 242.588C168.459 242.572 168.459 242.556 168.459 242.54C168.459 242.523 168.459 242.507 168.459 242.491C168.459 242.475 168.459 242.459 168.459 242.443C168.459 242.427 168.459 242.411 168.459 242.395C168.459 242.379 168.459 242.363 168.459 242.347C168.459 242.331 168.459 242.315 168.459 242.299C168.459 242.284 168.459 242.268 168.459 242.252C168.459 242.236 168.459 242.221 168.459 242.205C168.459 242.189 168.459 242.174 168.459 242.158C168.459 242.142 168.459 242.127 168.459 242.111C168.459 242.096 168.459 242.08 168.459 242.065C168.459 242.049 168.459 242.034 168.459 242.018C168.459 242.003 168.459 241.987 168.459 241.972C168.459 241.957 168.459 241.941 168.459 241.926C168.459 241.911 168.459 241.895 168.459 241.88C168.459 241.865 168.459 241.85 168.459 241.835C168.459 241.82 168.459 241.804 168.459 241.789C168.459 241.774 168.459 241.759 168.459 241.744C168.459 241.729 168.459 241.714 168.459 241.699C168.459 241.684 168.459 241.669 168.459 241.654C168.459 241.64 168.459 241.625 168.459 241.61C168.459 241.595 168.459 241.58 168.459 241.566C168.459 241.551 168.459 241.536 168.459 241.521C168.459 241.507 168.459 241.492 168.459 241.477C168.459 241.463 168.459 241.448 168.459 241.434C168.459 241.419 168.459 241.405 168.459 241.39C168.459 241.376 168.459 241.361 168.459 241.347C168.459 241.332 168.459 241.318 168.459 241.304C168.459 241.289 168.459 241.275 168.459 241.261C168.459 241.246 168.459 241.232 168.459 241.218C168.459 241.204 168.459 241.189 168.459 241.175C168.459 241.161 168.459 241.147 168.459 241.133C168.459 241.119 168.459 241.105 168.459 241.091C168.459 241.077 168.459 241.063 168.459 241.049C168.459 241.035 168.459 241.021 168.459 241.007C168.459 240.993 168.459 240.979 168.459 240.965C168.459 240.951 168.459 240.938 168.459 240.924C168.459 240.91 168.459 240.896 168.459 240.883C168.459 240.869 168.459 240.855 168.459 240.841C168.459 240.828 168.459 240.814 168.459 240.801C168.459 240.787 168.459 240.773 168.459 240.76C168.459 240.746 168.459 240.733 168.459 240.719C168.459 240.706 168.459 240.693 168.459 240.679C168.459 240.666 168.459 240.652 168.459 240.639C168.459 240.626 168.459 240.612 168.459 240.599C168.459 240.586 168.459 240.573 168.459 240.56C168.459 240.546 168.459 240.533 168.459 240.52C168.459 240.507 168.459 240.494 168.459 240.481C168.459 240.468 168.459 240.455 168.459 240.442C168.459 240.428 168.459 240.415 168.459 240.403C168.459 240.39 168.459 240.377 168.459 240.364C168.459 240.351 168.459 240.338 168.459 240.325C168.459 240.312 168.459 240.3 168.459 240.287C168.459 240.274 168.459 240.261 168.459 240.249C168.459 240.236 168.459 240.223 168.459 240.211C168.459 240.198 168.459 240.185 168.459 240.173C168.459 240.16 168.459 240.148 168.459 240.135C168.459 240.122 168.459 240.11 168.459 240.098C168.459 240.085 168.459 240.073 168.459 240.06C168.459 240.048 168.459 240.035 168.459 240.023C168.459 240.011 168.459 239.998 168.459 239.986C168.459 239.974 168.459 239.962 168.459 239.949C168.459 239.937 168.459 239.925 168.459 239.913C168.459 239.901 168.459 239.889 168.459 239.876C168.459 239.864 168.459 239.852 168.459 239.84C168.459 239.828 168.459 239.816 168.459 239.804C168.459 239.792 168.459 239.78 168.459 239.768C168.459 239.756 168.459 239.745 168.459 239.733C168.459 239.721 168.459 239.709 168.459 239.697C168.459 239.685 168.459 239.674 168.459 239.662C168.459 239.65 168.459 239.638 168.459 239.627C168.459 239.615 168.459 239.603 168.459 239.592C168.459 239.58 168.459 239.569 168.459 239.557C168.459 239.545 168.459 239.534 168.459 239.522C168.459 239.511 168.459 239.499 168.459 239.488C168.459 239.477 168.459 239.465 168.459 239.454C168.459 239.442 168.459 239.431 168.459 239.42C168.459 239.408 168.459 239.397 168.459 239.386C168.459 239.374 168.459 239.363 168.459 239.352C168.459 239.341 168.459 239.33 168.459 239.318C168.459 239.307 168.459 239.296 168.459 239.285C168.459 239.274 168.459 239.263 168.459 239.252C168.459 239.241 168.459 239.23 168.459 239.219C168.459 239.208 168.459 239.197 168.459 239.186C168.459 239.175 168.459 239.164 168.459 239.153C168.459 239.142 168.459 239.131 168.459 239.121C168.459 239.11 168.459 239.099 168.459 239.088C168.459 239.078 168.459 239.067 168.459 239.056C168.459 239.045 168.459 239.035 168.459 239.024C168.459 239.013 168.459 239.003 168.459 238.992C168.459 238.982 168.459 238.971 168.459 238.961C168.459 238.95 168.459 238.939 168.459 238.929C168.459 238.919 168.459 238.908 168.459 238.898C168.459 238.887 168.459 238.877 168.459 238.866C168.459 238.856 168.459 238.846 168.459 238.835C168.459 238.825 168.459 238.815 168.459 238.805C168.459 238.794 168.459 238.784 168.459 238.774C168.459 238.764 168.459 238.754 168.459 238.743C168.459 238.733 168.459 238.723 168.459 238.713C168.459 238.703 168.459 238.693 168.459 238.683C168.459 238.673 168.459 238.663 168.459 238.653C168.459 238.643 168.459 238.633 168.459 238.623C168.459 238.613 168.459 238.603 168.459 238.593C168.459 238.583 168.459 238.574 168.459 238.564C168.459 238.554 168.459 238.544 168.459 238.534C168.459 238.525 168.459 238.515 168.459 238.505C168.459 238.495 168.459 238.486 168.459 238.476C168.459 238.466 168.459 238.457 168.459 238.447C168.459 238.438 168.459 238.428 168.459 238.419C168.459 238.409 168.459 238.399 168.459 238.39C168.459 238.38 168.459 238.371 168.459 238.362C168.459 238.352 168.459 238.343 168.459 238.333C168.459 238.324 168.459 238.315 168.459 238.305C168.459 238.296 168.459 238.287 168.459 238.277C168.459 238.268 168.459 238.259 168.459 238.25C168.459 238.24 168.459 238.231 168.459 238.222C168.459 238.213 168.459 238.204 168.459 238.194C168.459 238.185 168.459 238.176 168.459 238.167C168.459 238.158 168.459 238.149 168.459 238.14C168.459 238.131 168.459 238.122 168.459 238.113C168.459 238.104 168.459 238.095 168.459 238.086C168.459 238.077 168.459 238.068 168.459 238.059C168.459 238.051 168.459 238.042 168.459 238.033C168.459 238.024 168.459 238.015 168.459 238.007C168.459 237.998 168.459 237.989 168.459 237.98C168.459 237.972 168.459 237.963 168.459 237.954C168.459 237.946 168.459 237.937 168.459 237.928C168.459 237.92 168.459 237.911 168.459 237.903C168.459 237.894 168.459 237.886 168.459 237.877C168.459 237.868 168.459 237.86 168.459 237.852C168.459 237.843 168.459 237.835 168.459 237.826C168.459 237.818 168.459 237.809 168.459 237.801C168.459 237.793 168.459 237.784 168.459 237.776C168.459 237.768 168.459 237.759 168.459 237.751C168.459 237.743 168.459 237.735 168.459 237.726C168.459 237.718 168.459 237.71 168.459 237.702C168.459 237.694 168.459 237.686 168.459 237.678C168.459 237.669 168.459 237.661 168.459 237.653C168.459 237.645 168.459 237.637 168.459 237.629C168.459 237.621 168.459 237.613 168.459 237.605C168.459 237.597 168.459 237.589 168.459 237.581C168.459 237.573 168.459 237.566 168.459 237.558C168.459 237.55 168.459 237.542 168.459 237.534C168.459 237.526 168.459 237.518 168.459 237.511C168.459 237.503 168.459 237.495 168.459 237.487C168.459 237.48 168.459 237.472 168.459 237.464C168.459 237.457 168.459 237.449 168.459 237.441C168.459 237.434 168.459 237.426 168.459 237.419C168.459 237.411 168.459 237.403 168.459 237.396C168.459 237.388 168.459 237.381 168.459 237.373C168.459 237.366 168.459 237.358 168.459 237.351C168.459 237.344 168.459 237.336 168.459 237.329C168.459 237.321 168.459 237.314 168.459 237.307C168.459 237.299 168.459 237.292 168.459 237.285C168.459 237.277 168.459 237.27 168.459 237.263C168.459 237.256 168.459 237.248 168.459 237.241C168.459 237.234 168.459 237.227 168.459 237.22C168.459 237.212 168.459 237.205 168.459 237.198C168.459 237.191 168.459 237.184 168.459 237.177C168.459 237.17 168.459 237.163 168.459 237.156C168.459 237.149 168.459 237.142 168.459 237.135C168.459 237.128 168.459 237.121 168.459 237.114C168.459 237.107 168.459 237.1 168.459 237.093C168.459 237.086 168.459 237.079 168.459 237.073C168.459 237.066 168.459 237.059 168.459 237.052C168.459 237.045 168.459 237.039 168.459 237.032C168.459 237.025 168.459 237.018 168.459 237.012C168.459 237.005 168.459 236.998 168.459 236.992C168.459 236.985 168.459 236.978 168.459 236.972C168.459 236.965 168.459 236.958 168.459 236.952C168.459 236.945 168.459 236.939 168.459 236.932C168.459 236.926 168.459 236.919 168.459 236.913C168.459 236.906 168.459 236.9 168.459 236.893C168.459 236.887 168.459 236.88 168.459 236.874C168.459 236.868 168.459 236.861 168.459 236.855C168.459 236.849 168.459 236.842 168.459 236.836C168.459 236.83 168.459 236.823 168.459 236.817C168.459 236.811 168.459 236.805 168.459 236.798C168.459 236.792 168.459 236.786 168.459 236.78C168.459 236.774 168.459 236.767 168.459 236.761C168.459 236.755 168.459 236.749 168.459 236.743C168.459 236.737 168.459 236.731 168.459 236.725C168.459 236.719 168.459 236.713 168.459 236.707C168.459 236.701 168.459 236.695 168.459 236.689C168.459 236.683 168.459 236.677 168.459 236.671C168.459 236.665 168.459 236.659 168.459 236.653C168.459 236.647 168.459 236.641 168.459 236.636C168.459 236.63 168.459 236.624 168.459 236.618C168.459 236.612 168.459 236.607 168.459 236.601C168.459 236.595 168.459 236.589 168.459 236.584C168.459 236.578 168.459 236.572 168.459 236.566C168.459 236.561 168.459 236.555 168.459 236.549C168.459 236.544 168.459 236.538 168.459 236.533C168.459 236.527 168.459 236.521 168.459 236.516C168.459 236.51 168.459 236.505 168.459 236.499C168.459 236.494 168.459 236.488 168.459 236.483C168.459 236.477 168.459 236.472 168.459 236.466C168.459 236.461 168.459 236.456 168.459 236.45C168.459 236.445 168.459 236.44 168.459 236.434C168.459 236.429 168.459 236.423 168.459 236.418C168.459 236.413 168.459 236.408 168.459 236.402C168.459 236.397 168.459 236.392 168.459 236.387C168.459 236.381 168.459 236.376 168.459 236.371C168.459 236.366 168.459 236.361 168.459 236.355C168.459 236.35 168.459 236.345 168.459 236.34C168.459 236.335 168.459 236.33 168.459 236.325C168.459 236.32 168.459 236.315 168.459 236.31C168.459 236.304 168.459 236.299 168.459 236.294C168.459 236.289 168.459 236.284 168.459 236.28C168.459 236.275 168.459 236.27 168.459 236.265C168.459 236.26 168.459 236.255 168.459 236.25C168.459 236.245 168.459 236.24 168.459 236.235C168.459 236.231 168.459 236.226 168.459 236.221C168.459 236.216 168.459 236.211 168.459 236.207C168.459 236.202 168.459 236.197 168.459 236.192C168.459 236.188 168.459 236.183 168.459 236.178C168.459 236.173 168.459 236.169 168.459 236.164C168.459 236.159 168.459 236.155 168.459 236.15C168.459 236.146 168.459 236.141 168.459 236.136C168.459 236.132 168.459 236.127 168.459 236.123C168.459 236.118 168.459 236.114 168.459 236.109C168.459 236.105 168.459 236.1 168.459 236.096C168.459 236.091 168.459 236.087 168.459 236.082C168.459 236.078 168.459 236.073 168.459 236.069C168.459 236.065 168.459 236.06 168.459 236.056C168.459 236.052 168.459 236.047 168.459 236.043C168.459 236.039 168.459 236.034 168.459 236.03C168.459 236.026 168.459 236.021 168.459 236.017C168.459 236.013 168.459 236.009 168.459 236.004C168.459 236 168.459 235.996 168.459 235.992C168.459 235.988 168.459 235.983 168.459 235.979C168.459 235.975 168.459 235.971 168.459 235.967C168.459 235.963 168.459 235.959 168.459 235.955C168.459 235.951 168.459 235.946 168.459 235.942C168.459 235.938 168.459 235.934 168.459 235.93C168.459 235.926 168.459 235.922 168.459 235.918C168.459 235.914 168.459 235.91 168.459 235.907C168.459 235.903 168.459 235.899 168.459 235.895C168.459 235.891 168.459 235.887 168.459 235.883C168.459 235.879 168.459 235.875 168.459 235.872C168.459 235.868 168.459 235.864 168.459 235.86C168.459 235.856 168.459 235.852 168.459 235.849C168.459 235.845 168.459 235.841 168.459 235.837C168.459 235.834 168.459 235.83 168.459 235.826C168.459 235.823 168.459 235.819 168.459 235.815C168.459 235.811 168.459 235.808 168.459 235.804C168.459 235.801 168.459 235.797 168.459 235.793C168.459 235.79 168.459 235.786 168.459 235.783C168.459 235.779 168.459 235.775 168.459 235.772C168.459 235.768 168.459 235.765 168.459 235.761C168.459 235.758 168.459 235.754 168.459 235.751C168.459 235.747 168.459 235.744 168.459 235.74C168.459 235.737 168.459 235.734 168.459 235.73C168.459 235.727 168.459 235.723 168.459 235.72C168.459 235.717 168.459 235.713 168.459 235.71C168.459 235.707 168.459 235.703 168.459 235.7C168.459 235.697 168.459 235.693 168.459 235.69C168.459 235.687 168.459 235.683 168.459 235.68C168.459 235.677 168.459 235.674 168.459 235.67C168.459 235.667 168.459 235.664 168.459 235.661C168.459 235.658 168.459 235.654 168.459 235.651C168.459 235.648 168.459 235.645 168.459 235.642C168.459 235.639 168.459 235.636 168.459 235.633C168.459 235.629 168.459 235.626 168.459 235.623C168.459 235.62 168.459 235.617 168.459 235.614C168.459 235.611 168.459 235.608 168.459 235.605C168.459 235.602 168.459 235.599 168.459 235.596C168.459 235.593 168.459 235.59 168.459 235.587C168.459 235.584 168.459 235.581 168.459 235.578C168.459 235.575 168.459 235.573 168.459 235.57C168.459 235.567 168.459 235.564 168.459 235.561C168.459 235.558 168.459 235.555 168.459 235.552C168.459 235.55 168.459 235.547 168.459 235.544C168.459 235.541 168.459 235.538 168.459 235.536C168.459 235.533 168.459 235.53 168.459 235.527C168.459 235.525 168.459 235.522 168.459 235.519C168.459 235.516 168.459 235.514 168.459 235.511C168.459 235.508 168.459 235.506 168.459 235.503C168.459 235.5 168.459 235.498 168.459 235.495C168.459 235.492 168.459 235.49 168.459 235.487C168.459 235.485 168.459 235.482 168.459 235.479C168.459 235.477 168.459 235.474 168.459 235.472C168.459 235.469 168.459 235.467 168.459 235.464C168.459 235.462 168.459 235.459 168.459 235.457C168.459 235.454 168.459 235.452 168.459 235.449C168.459 235.447 168.459 235.444 168.459 235.442C168.459 235.439 168.459 235.437 168.459 235.435C168.459 235.432 168.459 235.43 168.459 235.427C168.459 235.425 168.459 235.423 168.459 235.42C168.459 235.418 168.459 235.415 168.459 235.413C168.459 235.411 168.459 235.408 168.459 235.406C168.459 235.404 168.459 235.402 168.459 235.399C168.459 235.397 168.459 235.395 168.459 235.392C168.459 235.39 168.459 235.388 168.459 235.386C168.459 235.384 168.459 235.381 168.459 235.379C168.459 235.377 168.459 235.375 168.459 235.373C168.459 235.37 168.459 235.368 168.459 235.366C168.459 235.364 168.459 235.362 168.459 235.36C168.459 235.357 168.459 235.355 168.459 235.353C168.459 235.351 168.459 235.349 168.459 235.347C168.459 235.345 168.459 235.343 168.459 235.341C168.459 235.339 168.459 235.337 168.459 235.335C168.459 235.333 168.459 235.331 168.459 235.329C168.459 235.327 168.459 235.325 168.459 235.323C168.459 235.321 168.459 235.319 168.459 235.317C168.459 235.315 168.459 235.313 168.459 235.311C168.459 235.309 168.459 235.307 168.459 235.305C168.459 235.303 168.459 235.301 168.459 235.299C168.459 235.298 168.459 235.296 168.459 235.294C168.459 235.292 168.459 235.29 168.459 235.288C168.459 235.286 168.459 235.285 168.459 235.283C168.459 235.281 168.459 235.279 168.459 235.277C168.459 235.276 168.459 235.274 168.459 235.272C168.459 235.27 168.459 235.269 168.459 235.267C168.459 235.265 168.459 235.263 168.459 235.262C168.459 235.26 168.459 235.258 168.459 235.257C168.459 235.255 168.459 235.253 168.459 235.251C168.459 235.25 168.459 235.248 168.459 235.246C168.459 235.245 168.459 235.243 168.459 235.242C168.459 235.24 168.459 235.238 168.459 235.237C168.459 235.235 168.459 235.233 168.459 235.232C168.459 235.23 168.459 235.229 168.459 235.227C168.459 235.226 168.459 235.224 168.459 235.222C168.459 235.221 168.459 235.219 168.459 235.218C168.459 235.216 168.459 235.215 168.459 235.213C168.459 235.212 168.459 235.21 168.459 235.209C168.459 235.207 168.459 235.206 168.459 235.204C168.459 235.203 168.459 235.202 168.459 235.2C168.459 235.199 168.459 235.197 168.459 235.196C168.459 235.194 168.459 235.193 168.459 235.192C168.459 235.19 168.459 235.189 168.459 235.187C168.459 235.186 168.459 235.185 168.459 235.183C168.459 235.182 168.459 235.181 168.459 235.179C168.459 235.178 168.459 235.177 168.459 235.175C168.459 235.174 168.459 235.173 168.459 235.171C168.459 235.17 168.459 235.169 168.459 235.167C168.459 235.166 168.459 235.165 168.459 235.164C168.459 235.162 168.459 235.161 168.459 235.16C168.459 235.159 168.459 235.157 168.459 235.156C168.459 235.155 168.459 235.154 168.459 235.153C168.459 235.151 168.459 235.15 168.459 235.149C168.459 235.148 168.459 235.147 168.459 235.146C168.459 235.144 168.459 235.143 168.459 235.142C168.459 235.141 168.459 235.14 168.459 235.139C168.459 235.138 168.459 235.136 168.459 235.135C168.459 235.134 168.459 235.133 168.459 235.132C168.459 235.131 168.459 235.13 168.459 235.129C168.459 235.128 168.459 235.127 168.459 235.126C168.459 235.124 168.459 235.123 168.459 235.122C168.459 235.121 168.459 235.12 168.459 235.119C168.459 235.118 168.459 235.117 168.459 235.116C168.459 235.115 168.459 235.114 168.459 235.113C168.459 235.112 168.459 235.111 168.459 235.11C168.459 235.109 168.459 235.108 168.459 235.108C168.459 235.107 168.459 235.106 168.459 235.105C168.459 235.104 168.459 235.103 168.459 235.102C168.459 235.101 168.459 235.1 168.459 235.099C168.459 235.098 168.459 235.097 168.459 235.096C168.459 235.096 168.459 235.095 168.459 235.094C168.459 235.093 168.459 235.092 168.459 235.091C168.459 235.09 168.459 235.09 168.459 235.089C168.459 235.088 168.459 235.087 168.459 235.086C168.459 235.085 168.459 235.085 168.459 235.084C168.459 235.083 168.459 235.082 168.459 235.081C168.459 235.081 168.459 235.08 168.459 235.079C168.459 235.078 168.459 235.078 168.459 235.077C168.459 235.076 168.459 235.075 168.459 235.075C168.459 235.074 168.459 235.073 168.459 235.072C168.459 235.072 168.459 235.071 168.459 235.07C168.459 235.069 168.459 235.069 168.459 235.068C168.459 235.067 168.459 235.067 168.459 235.066C168.459 235.065 168.459 235.065 168.459 235.064C168.459 235.063 168.459 235.063 168.459 235.062C168.459 235.061 168.459 235.061 168.459 235.06C168.459 235.059 168.459 235.059 168.459 235.058C168.459 235.057 168.459 235.057 168.459 235.056C168.459 235.056 168.459 235.055 168.459 235.054C168.459 235.054 168.459 235.053 168.459 235.053C168.459 235.052 168.459 235.051 168.459 235.051C168.459 235.05 168.459 235.05 168.459 235.049C168.459 235.048 168.459 235.048 168.459 235.047C168.459 235.047 168.459 235.046 168.459 235.046C168.459 235.045 168.459 235.045 168.459 235.044C168.459 235.044 168.459 235.043 168.459 235.043C168.459 235.042 168.459 235.042 168.459 235.041C168.459 235.041 168.459 235.04 168.459 235.04C168.459 235.039 168.459 235.039 168.459 235.038C168.459 235.038 168.459 235.037 168.459 235.037C168.459 235.036 168.459 235.036 168.459 235.035C168.459 235.035 168.459 235.034 168.459 235.034C168.459 235.034 168.459 235.033 168.459 235.033C168.459 235.032 168.459 235.032 168.459 235.031C168.459 235.031 168.459 235.031 168.459 235.03C168.459 235.03 168.459 235.029 168.459 235.029C168.459 235.029 168.459 235.028 168.459 235.028C168.459 235.027 168.459 235.027 168.459 235.027C168.459 235.026 168.459 235.026 168.459 235.026C168.459 235.025 168.459 235.025 168.459 235.024C168.459 235.024 168.459 235.024 168.459 235.023C168.459 235.023 168.459 235.023 168.459 235.022C168.459 235.022 168.459 235.022 168.459 235.021C168.459 235.021 168.459 235.021 168.459 235.02C168.459 235.02 168.459 235.02 168.459 235.02C168.459 235.019 168.459 235.019 168.459 235.019C168.459 235.018 168.459 235.018 168.459 235.018C168.459 235.017 168.459 235.017 168.459 235.017C168.459 235.017 168.459 235.016 168.459 235.016C168.459 235.016 168.459 235.016 168.459 235.015C168.459 235.015 168.459 235.015 168.459 235.015C168.459 235.014 168.459 235.014 168.459 235.014C168.459 235.014 168.459 235.013 168.459 235.013C168.459 235.013 168.459 235.013 168.459 235.012C168.459 235.012 168.459 235.012 168.459 235.012C168.459 235.012 168.459 235.011 168.459 235.011C168.459 235.011 168.459 235.011 168.459 235.01C168.459 235.01 168.459 235.01 168.459 235.01C168.459 235.01 168.459 235.009 168.459 235.009C168.459 235.009 168.459 235.009 168.459 235.009C168.459 235.009 168.459 235.008 168.459 235.008C168.459 235.008 168.459 235.008 168.459 235.008C168.459 235.008 168.459 235.007 168.459 235.007C168.459 235.007 168.459 235.007 168.459 235.007C168.459 235.007 168.459 235.006 168.459 235.006C168.459 235.006 168.459 235.006 168.459 235.006C168.459 235.006 168.459 235.006 168.459 235.006C168.459 235.005 168.459 235.005 168.459 235.005C168.459 235.005 168.459 235.005 168.459 235.005C168.459 235.005 168.459 235.005 168.459 235.004C168.459 235.004 168.459 235.004 168.459 235.004C168.459 235.004 168.459 235.004 168.459 235.004C168.459 235.004 168.459 235.004 168.459 235.003C168.459 235.003 168.459 235.003 168.459 235.003C168.459 235.003 168.459 235.003 168.459 235.003C168.459 235.003 168.459 235.003 168.459 235.003C168.459 235.003 168.459 235.003 168.459 235.002C168.459 235.002 168.459 235.002 168.459 235.002C168.459 235.002 168.459 235.002 168.459 235.002C168.459 235.002 168.459 235.002 168.459 235.002C168.459 235.002 168.459 235.002 168.459 235.002C168.459 235.002 168.459 235.002 168.459 235.001C168.459 235.001 168.459 235.001 168.459 235.001C168.459 235.001 168.459 235.001 168.459 235.001C168.459 235.001 168.459 235.001 168.459 235.001C168.459 235.001 168.459 235.001 168.459 235.001C168.459 235.001 168.459 235.001 168.459 235.001C168.459 235.001 168.459 235.001 168.459 235.001C168.459 235.001 168.459 235.001 168.459 235.001C168.459 235.001 168.459 235.001 168.459 235.001C168.459 235 168.459 235 168.459 235C168.459 235 168.459 235 168.459 235C168.459 235 168.459 235 168.459 235C168.459 235 168.459 235 168.459 235C168.459 235 168.459 235 168.459 235C168.459 235 168.459 235 168.459 235C168.459 235 168.459 235 168.459 235C168.459 235 168.459 235 168.459 235C168.459 235 168.459 235 168.459 235C168.459 235 168.459 235 168.459 235C168.459 235 168.459 235 168.459 235C168.459 235 168.459 235 168.459 235C168.459 235 168.459 235 168.459 235C168.459 235 168.459 235 168.459 235C168.459 235 168.459 235 168.459 235C168.459 235 168.459 235 168.459 235C168.459 235 168.459 235 168.459 235C168.459 235 168.459 235 168.459 235C168.459 235 167.334 235 167.334 235ZM167.334 235H168.459V225H167.334H166.209V235H167.334Z" fill="white"/>
<path d="M226.829 227.098C227.243 228.252 226.637 229.534 225.484 229.948C225.295 230.016 225.109 230.059 224.922 230.067L222.524 235.13C222.637 235.279 222.726 235.461 222.793 235.65C223.207 236.803 222.602 238.086 221.448 238.5C220.295 238.914 219.012 238.309 218.598 237.155C218.53 236.966 218.483 236.77 218.476 236.583L214.841 234.868C214.692 234.981 214.511 235.07 214.322 235.137C214.133 235.205 213.937 235.252 213.75 235.26L210.694 241.755C210.807 241.904 210.892 242.075 210.959 242.264C211.373 243.418 210.768 244.7 209.614 245.114C208.46 245.528 207.178 244.923 206.764 243.769C206.35 242.616 206.955 241.333 208.109 240.919C208.298 240.851 208.483 240.808 208.67 240.8L211.741 234.311C211.628 234.162 211.539 233.981 211.471 233.792C211.057 232.639 211.663 231.356 212.817 230.942C213.97 230.528 215.253 231.133 215.667 232.287C215.735 232.476 215.782 232.672 215.789 232.859L219.424 234.574C219.573 234.461 219.754 234.372 219.943 234.305C220.132 234.237 220.328 234.19 220.515 234.182L222.898 229.112C222.786 228.963 222.701 228.792 222.633 228.603C222.219 227.45 222.824 226.167 223.978 225.753C225.132 225.339 226.415 225.944 226.829 227.098ZM226.829 227.098C227.243 228.252 226.637 229.534 225.484 229.948C225.295 230.016 225.109 230.059 224.922 230.067L222.524 235.13C222.637 235.279 222.726 235.461 222.793 235.65C223.207 236.803 222.602 238.086 221.448 238.5C220.295 238.914 219.012 238.309 218.598 237.155C218.53 236.966 218.483 236.77 218.476 236.583L214.841 234.868C214.692 234.981 214.511 235.07 214.322 235.137C214.133 235.205 213.937 235.252 213.75 235.26L210.694 241.755C210.807 241.904 210.892 242.075 210.959 242.264C211.373 243.418 210.768 244.7 209.614 245.114C208.46 245.528 207.178 244.923 206.764 243.769C206.35 242.616 206.955 241.333 208.109 240.919C208.298 240.851 208.483 240.808 208.67 240.8L211.741 234.311C211.628 234.162 211.539 233.981 211.471 233.792C211.057 232.639 211.663 231.356 212.817 230.942C213.97 230.528 215.253 231.133 215.667 232.287C215.735 232.476 215.782 232.672 215.789 232.859L219.424 234.574C219.573 234.461 219.754 234.372 219.943 234.305C220.132 234.237 220.328 234.19 220.515 234.182L222.898 229.112C222.786 228.963 222.701 228.792 222.633 228.603C222.219 227.45 222.824 226.167 223.978 225.753C225.132 225.339 226.415 225.944 226.829 227.098Z" fill="white"/>
<rect x="266" y="201" width="68" height="68" rx="34" fill="white" fill-opacity="0.15"/>
<path d="M305 230C305 227.233 302.767 225 300 225C297.233 225 295 227.233 295 230C295 232.767 297.233 235 300 235C302.767 235 305 232.767 305 230Z" fill="white"/>
<path d="M290 245H310V242.667C310 239.333 303.333 237.5 300 237.5C296.667 237.5 290 239.333 290 242.667V245Z" fill="white"/>
</g>
<path d="M30 1H372C388.016 1 401 13.9837 401 30V301H1V30C1 13.9837 13.9837 1 30 1Z" stroke="white" stroke-opacity="0.3" stroke-width="2"/>
<defs>
<linearGradient id="paint0_linear_350_3551" x1="201" y1="0" x2="201" y2="302" gradientUnits="userSpaceOnUse">
<stop/>
<stop offset="0.528846" stop-opacity="0.6"/>
<stop offset="1" stop-opacity="0"/>
</linearGradient>
<linearGradient id="paint1_linear_350_3551" x1="49.7931" y1="31.1107" x2="70.4284" y2="87.1107" gradientUnits="userSpaceOnUse">
<stop stop-color="white" stop-opacity="0.5"/>
<stop offset="1" stop-color="white" stop-opacity="0.3"/>
</linearGradient>
<linearGradient id="paint2_linear_350_3551" x1="49.7931" y1="109.111" x2="70.4284" y2="165.111" gradientUnits="userSpaceOnUse">
<stop stop-color="white" stop-opacity="0.5"/>
<stop offset="1" stop-color="white" stop-opacity="0.3"/>
</linearGradient>
<clipPath id="clip0_350_3551">
<path d="M0 30C0 13.4315 13.4315 0 30 0H372C388.569 0 402 13.4315 402 30V302H0V30Z" fill="white"/>
</clipPath>
<clipPath id="clip1_350_3551">
<rect width="32" height="32" fill="white" transform="translate(101 219)"/>
</clipPath>
</defs>
</svg>
