<svg width="402" height="297" viewBox="0 0 402 297" fill="none" xmlns="http://www.w3.org/2000/svg">
<g clip-path="url(#clip0_350_3551)">
<path d="M0 30C0 13.4315 13.4315 0 30 0H372C388.569 0 402 13.4315 402 30V302H0V30Z" fill="url(#paint0_linear_350_3551)" fill-opacity="0.4"/>
<circle cx="60.1108" cy="59.1107" r="28" transform="rotate(0.226943 60.1108 59.1107)" fill="url(#paint1_linear_350_3551)"/>
<path d="M121.311 48.939V50.7358H114.241V56.771H112.034V50.7358H105.081V48.939H121.311ZM106.76 43.4702C106.76 41.0288 109.378 39.4858 113.167 39.4858C116.956 39.4858 119.553 41.0288 119.553 43.4702C119.553 45.9116 116.956 47.4546 113.167 47.4546C109.378 47.4546 106.76 45.9116 106.76 43.4702ZM109.026 43.4702C109.026 44.8765 110.667 45.6968 113.167 45.6968C115.667 45.6968 117.288 44.8765 117.288 43.4702C117.288 42.064 115.667 41.2437 113.167 41.2437C110.667 41.2437 109.026 42.064 109.026 43.4702ZM137.093 38.8218V56.7905H134.867V38.8218H137.093ZM123.226 42.1812V40.4038H131.605V47.1226H125.492V50.7358C128.304 50.7163 130.707 50.5991 133.46 50.1304L133.695 51.9077C130.648 52.4351 127.992 52.5522 124.808 52.5522H123.246V45.3647H129.359V42.1812H123.226ZM149.926 39.8765V41.6343H146.196C146.215 43.7241 147.739 45.7749 150.532 46.5952L149.438 48.314C147.387 47.689 145.903 46.3804 145.102 44.7202C144.301 46.5171 142.797 47.9429 140.649 48.6265L139.555 46.8882C142.407 46.0288 143.91 43.8608 143.93 41.6343H140.16V39.8765H149.926ZM142.485 56.5562V49.3687H144.653V51.1851H152.055V49.3687H154.243V56.5562H142.485ZM144.653 54.7593H152.055V52.9038H144.653V54.7593ZM152.016 48.5483V38.8413H154.243V48.5483H152.016Z" fill="white"/>
<path d="M108.719 77.2573C106.258 77.2573 104.778 76.1001 104.778 74.2251C104.778 72.9067 105.51 71.9106 106.77 71.5737C105.672 71.1782 105.027 70.2407 105.027 69.0835C105.027 67.2817 106.433 66.1831 108.719 66.1831C111.004 66.1831 112.395 67.2817 112.395 69.0835C112.395 70.27 111.736 71.2075 110.667 71.5737C111.927 71.9399 112.674 72.9214 112.674 74.2251C112.674 76.1001 111.179 77.2573 108.719 77.2573ZM106.272 74.1079C106.272 75.3384 107.122 75.9976 108.719 75.9976C110.315 75.9976 111.165 75.3384 111.165 74.1079C111.165 72.9214 110.315 72.2769 108.719 72.2769C107.122 72.2769 106.272 72.9214 106.272 74.1079ZM106.521 69.23C106.521 70.3726 107.312 71.0171 108.719 71.0171C110.11 71.0171 110.886 70.3726 110.886 69.23C110.886 68.0728 110.11 67.4429 108.719 67.4429C107.312 67.4429 106.521 68.0728 106.521 69.23ZM125.189 71.9253V73.0679H119.96V75.5142H118.539V73.0679H113.104V71.9253H125.189ZM114.598 78.019V74.3862H116.004V76.8618H123.841V78.019H114.598ZM114.686 70.7534V65.3774H116.092V66.9741H122.186V65.3774H123.607V70.7534H114.686ZM116.092 69.6255H122.186V68.0581H116.092V69.6255ZM139.38 64.9673V74.7231H137.959V69.728H135.454V68.5708H137.959V64.9673H139.38ZM128.364 71.9546C130.415 71.2515 131.66 69.4937 131.66 67.6479V67.1353H128.789V65.9927H135.923V67.1353H133.096V67.6479C133.096 69.3179 134.282 70.9878 136.275 71.6763L135.557 72.7896C134.063 72.2769 132.979 71.2075 132.407 69.8892C131.836 71.354 130.664 72.5259 129.097 73.0972L128.364 71.9546ZM130.781 78.019V73.8735H132.202V76.8618H139.732V78.019H130.781Z" fill="white" fill-opacity="0.5"/>
<rect x="345" y="47.1108" width="25" height="24" rx="12" fill="#74F1F1" fill-opacity="0.7"/>
<path d="M354.549 64.1108V62.8257L357.994 59.1069C358.787 58.2183 359.184 57.4937 359.184 56.7554C359.184 55.812 358.609 55.2925 357.57 55.2925C356.695 55.2925 355.766 55.689 354.809 56.3726L354.262 55.1011C355.055 54.3901 356.395 53.8979 357.652 53.8979C359.635 53.8979 360.893 54.978 360.893 56.6323C360.893 57.8081 360.414 58.7515 359.238 59.9819L356.723 62.6753H361.262V64.1108H354.549Z" fill="white"/>
<circle cx="60.1108" cy="137.111" r="28" transform="rotate(0.226943 60.1108 137.111)" fill="url(#paint2_linear_350_3551)"/>
<path d="M113.616 118.326V120.005H105.003V118.326H108.225V116.861H110.393V118.326H113.616ZM105.589 123.404C105.589 121.685 107.151 120.533 109.319 120.533C111.487 120.533 113.05 121.685 113.05 123.404C113.05 125.142 111.487 126.294 109.319 126.294C107.151 126.294 105.589 125.142 105.589 123.404ZM107.522 129.693V128.013H112.971V126.646H115.178V128.013H120.55V129.693H107.522ZM107.542 123.404C107.542 124.244 108.264 124.751 109.319 124.751C110.393 124.751 111.096 124.244 111.096 123.404C111.096 122.583 110.393 122.076 109.319 122.076C108.264 122.076 107.542 122.583 107.542 123.404ZM108.87 132.623C108.87 131.06 110.784 130.24 114.065 130.24C117.346 130.24 119.26 131.06 119.26 132.623C119.26 134.146 117.346 134.947 114.065 134.947C110.784 134.947 108.87 134.146 108.87 132.623ZM111.233 132.623C111.233 133.228 112.249 133.501 114.065 133.501C115.901 133.501 116.897 133.228 116.897 132.623C116.897 131.978 115.901 131.705 114.065 131.705C112.249 131.705 111.233 131.978 111.233 132.623ZM113.225 122.857V121.099H114.612V117.134H116.702V126.177H114.612V122.857H113.225ZM118.186 127.095V116.841H120.296V127.095H118.186ZM136.371 121.783V123.58H124.515V121.783H129.359V119.498H131.566V121.783H136.371ZM125.882 128.052C125.882 126.06 127.816 124.654 130.472 124.654C133.109 124.654 135.043 126.06 135.043 128.052C135.043 130.064 133.109 131.47 130.472 131.47C127.816 131.47 125.882 130.064 125.882 128.052ZM128.148 128.052C128.148 129.029 129.144 129.615 130.472 129.615C131.781 129.615 132.796 129.029 132.796 128.052C132.796 127.076 131.781 126.49 130.472 126.49C129.144 126.49 128.148 127.076 128.148 128.052ZM153.539 121.783V123.58H141.684V121.783H146.528V119.498H148.735V121.783H153.539ZM143.051 128.052C143.051 126.06 144.985 124.654 147.641 124.654C150.278 124.654 152.211 126.06 152.211 128.052C152.211 130.064 150.278 131.47 147.641 131.47C144.985 131.47 143.051 130.064 143.051 128.052ZM145.317 128.052C145.317 129.029 146.313 129.615 147.641 129.615C148.95 129.615 149.965 129.029 149.965 128.052C149.965 127.076 148.95 126.49 147.641 126.49C146.313 126.49 145.317 127.076 145.317 128.052ZM170.708 121.783V123.58H158.853V121.783H163.696V119.498H165.903V121.783H170.708ZM160.22 128.052C160.22 126.06 162.153 124.654 164.81 124.654C167.446 124.654 169.38 126.06 169.38 128.052C169.38 130.064 167.446 131.47 164.81 131.47C162.153 131.47 160.22 130.064 160.22 128.052ZM162.485 128.052C162.485 129.029 163.482 129.615 164.81 129.615C166.118 129.615 167.134 129.029 167.134 128.052C167.134 127.076 166.118 126.49 164.81 126.49C163.482 126.49 162.485 127.076 162.485 128.052Z" fill="white"/>
<path d="M115.237 142.953V148.358H117.332V149.544H115.237V156.297H113.816V142.953H115.237ZM104.851 146.19V145.033H108.089V143.128H109.51V145.033H112.688V146.19H104.851ZM105.525 150.292C105.525 148.475 106.917 147.186 108.821 147.186C110.711 147.186 112.102 148.475 112.102 150.292C112.102 152.108 110.711 153.382 108.821 153.382C106.917 153.382 105.525 152.108 105.525 150.292ZM106.887 150.292C106.887 151.434 107.693 152.21 108.821 152.21C109.934 152.21 110.74 151.434 110.74 150.292C110.74 149.134 109.934 148.358 108.821 148.358C107.693 148.358 106.887 149.134 106.887 150.292ZM128.236 143.451V147.083H120.487V148.607H128.544V149.75H119.051V146H126.8V144.593H119.022V143.451H128.236ZM117.586 152.167V151.009H129.671V152.167H124.31V156.312H122.904V152.167H117.586ZM143.862 142.967V152.723H142.442V147.728H139.937V146.571H142.442V142.967H143.862ZM132.847 149.955C134.898 149.251 136.143 147.494 136.143 145.648V145.135H133.272V143.993H140.405V145.135H137.578V145.648C137.578 147.318 138.765 148.988 140.757 149.676L140.039 150.79C138.545 150.277 137.461 149.208 136.89 147.889C136.319 149.354 135.147 150.526 133.579 151.097L132.847 149.955ZM135.264 156.019V151.874H136.685V154.862H144.214V156.019H135.264Z" fill="white" fill-opacity="0.5"/>
<rect x="71" y="201" width="181" height="68" rx="34" fill="white" fill-opacity="0.15"/>
<g clip-path="url(#clip1_350_3551)">
<path d="M111.333 244.333V237.667H116.667V244.333C116.667 245.067 117.267 245.667 118 245.667H122C122.733 245.667 123.333 245.067 123.333 244.333V235H125.6C126.213 235 126.507 234.24 126.04 233.84L114.893 223.8C114.387 223.347 113.613 223.347 113.107 223.8L101.96 233.84C101.507 234.24 101.787 235 102.4 235H104.667V244.333C104.667 245.067 105.267 245.667 106 245.667H110C110.733 245.667 111.333 245.067 111.333 244.333Z" fill="white"/>
</g>
<path d="M154.333 233.875C153.712 233.875 153.208 234.379 153.208 235C153.208 235.621 153.712 236.125 154.333 236.125V235V233.875ZM164.333 236.125C164.955 236.125 165.458 235.621 165.458 235C165.458 234.379 164.955 233.875 164.333 233.875V235V236.125ZM164.333 233.875C163.712 233.875 163.208 234.379 163.208 235C163.208 235.621 163.712 236.125 164.333 236.125V235V233.875ZM174.333 236.125C174.955 236.125 175.458 235.621 175.458 235C175.458 234.379 174.955 233.875 174.333 233.875V235V236.125ZM165.459 235C165.459 234.379 164.955 233.875 164.334 233.875C163.712 233.875 163.209 234.379 163.209 235H164.334H165.459ZM163.209 245C163.209 245.621 163.712 246.125 164.334 246.125C164.955 246.125 165.459 245.621 165.459 245H164.334H163.209ZM163.209 235C163.209 235.621 163.712 236.125 164.334 236.125C164.955 236.125 165.459 235.621 165.459 235H164.334H163.209ZM165.459 225C165.459 224.379 164.955 223.875 164.334 223.875C163.712 223.875 163.209 224.379 163.209 225H164.334H165.459ZM154.333 235V236.125H164.333V235V233.875H154.333V235ZM164.333 235V236.125H174.333V235V233.875H164.333V235ZM164.334 235C164.334 235 163.209 235 163.209 235C163.209 235 163.209 235 163.209 235C163.209 235 163.209 235 163.209 235C163.209 235 163.209 235 163.209 235C163.209 235 163.209 235 163.209 235C163.209 235 163.209 235 163.209 235C163.209 235 163.209 235 163.209 235C163.209 235 163.209 235 163.209 235C163.209 235 163.209 235 163.209 235C163.209 235 163.209 235 163.209 235C163.209 235 163.209 235 163.209 235C163.209 235 163.209 235 163.209 235C163.209 235 163.209 235 163.209 235C163.209 235 163.209 235 163.209 235C163.209 235 163.209 235 163.209 235C163.209 235 163.209 235 163.209 235C163.209 235 163.209 235 163.209 235C163.209 235 163.209 235 163.209 235C163.209 235 163.209 235 163.209 235.001C163.209 235.001 163.209 235.001 163.209 235.001C163.209 235.001 163.209 235.001 163.209 235.001C163.209 235.001 163.209 235.001 163.209 235.001C163.209 235.001 163.209 235.001 163.209 235.001C163.209 235.001 163.209 235.001 163.209 235.001C163.209 235.001 163.209 235.001 163.209 235.001C163.209 235.001 163.209 235.001 163.209 235.001C163.209 235.001 163.209 235.001 163.209 235.001C163.209 235.002 163.209 235.002 163.209 235.002C163.209 235.002 163.209 235.002 163.209 235.002C163.209 235.002 163.209 235.002 163.209 235.002C163.209 235.002 163.209 235.002 163.209 235.002C163.209 235.002 163.209 235.002 163.209 235.002C163.209 235.003 163.209 235.003 163.209 235.003C163.209 235.003 163.209 235.003 163.209 235.003C163.209 235.003 163.209 235.003 163.209 235.003C163.209 235.003 163.209 235.003 163.209 235.003C163.209 235.004 163.209 235.004 163.209 235.004C163.209 235.004 163.209 235.004 163.209 235.004C163.209 235.004 163.209 235.004 163.209 235.004C163.209 235.005 163.209 235.005 163.209 235.005C163.209 235.005 163.209 235.005 163.209 235.005C163.209 235.005 163.209 235.005 163.209 235.006C163.209 235.006 163.209 235.006 163.209 235.006C163.209 235.006 163.209 235.006 163.209 235.006C163.209 235.006 163.209 235.007 163.209 235.007C163.209 235.007 163.209 235.007 163.209 235.007C163.209 235.007 163.209 235.008 163.209 235.008C163.209 235.008 163.209 235.008 163.209 235.008C163.209 235.008 163.209 235.009 163.209 235.009C163.209 235.009 163.209 235.009 163.209 235.009C163.209 235.009 163.209 235.01 163.209 235.01C163.209 235.01 163.209 235.01 163.209 235.01C163.209 235.011 163.209 235.011 163.209 235.011C163.209 235.011 163.209 235.012 163.209 235.012C163.209 235.012 163.209 235.012 163.209 235.012C163.209 235.013 163.209 235.013 163.209 235.013C163.209 235.013 163.209 235.014 163.209 235.014C163.209 235.014 163.209 235.014 163.209 235.015C163.209 235.015 163.209 235.015 163.209 235.015C163.209 235.016 163.209 235.016 163.209 235.016C163.209 235.016 163.209 235.017 163.209 235.017C163.209 235.017 163.209 235.017 163.209 235.018C163.209 235.018 163.209 235.018 163.209 235.019C163.209 235.019 163.209 235.019 163.209 235.02C163.209 235.02 163.209 235.02 163.209 235.02C163.209 235.021 163.209 235.021 163.209 235.021C163.209 235.022 163.209 235.022 163.209 235.022C163.209 235.023 163.209 235.023 163.209 235.023C163.209 235.024 163.209 235.024 163.209 235.024C163.209 235.025 163.209 235.025 163.209 235.026C163.209 235.026 163.209 235.026 163.209 235.027C163.209 235.027 163.209 235.027 163.209 235.028C163.209 235.028 163.209 235.029 163.209 235.029C163.209 235.029 163.209 235.03 163.209 235.03C163.209 235.031 163.209 235.031 163.209 235.031C163.209 235.032 163.209 235.032 163.209 235.033C163.209 235.033 163.209 235.034 163.209 235.034C163.209 235.034 163.209 235.035 163.209 235.035C163.209 235.036 163.209 235.036 163.209 235.037C163.209 235.037 163.209 235.038 163.209 235.038C163.209 235.039 163.209 235.039 163.209 235.04C163.209 235.04 163.209 235.041 163.209 235.041C163.209 235.042 163.209 235.042 163.209 235.043C163.209 235.043 163.209 235.044 163.209 235.044C163.209 235.045 163.209 235.045 163.209 235.046C163.209 235.046 163.209 235.047 163.209 235.047C163.209 235.048 163.209 235.048 163.209 235.049C163.209 235.05 163.209 235.05 163.209 235.051C163.209 235.051 163.209 235.052 163.209 235.053C163.209 235.053 163.209 235.054 163.209 235.054C163.209 235.055 163.209 235.056 163.209 235.056C163.209 235.057 163.209 235.057 163.209 235.058C163.209 235.059 163.209 235.059 163.209 235.06C163.209 235.061 163.209 235.061 163.209 235.062C163.209 235.063 163.209 235.063 163.209 235.064C163.209 235.065 163.209 235.065 163.209 235.066C163.209 235.067 163.209 235.067 163.209 235.068C163.209 235.069 163.209 235.069 163.209 235.07C163.209 235.071 163.209 235.072 163.209 235.072C163.209 235.073 163.209 235.074 163.209 235.075C163.209 235.075 163.209 235.076 163.209 235.077C163.209 235.078 163.209 235.078 163.209 235.079C163.209 235.08 163.209 235.081 163.209 235.081C163.209 235.082 163.209 235.083 163.209 235.084C163.209 235.085 163.209 235.085 163.209 235.086C163.209 235.087 163.209 235.088 163.209 235.089C163.209 235.09 163.209 235.09 163.209 235.091C163.209 235.092 163.209 235.093 163.209 235.094C163.209 235.095 163.209 235.096 163.209 235.096C163.209 235.097 163.209 235.098 163.209 235.099C163.209 235.1 163.209 235.101 163.209 235.102C163.209 235.103 163.209 235.104 163.209 235.105C163.209 235.106 163.209 235.107 163.209 235.108C163.209 235.108 163.209 235.109 163.209 235.11C163.209 235.111 163.209 235.112 163.209 235.113C163.209 235.114 163.209 235.115 163.209 235.116C163.209 235.117 163.209 235.118 163.209 235.119C163.209 235.12 163.209 235.121 163.209 235.122C163.209 235.123 163.209 235.124 163.209 235.126C163.209 235.127 163.209 235.128 163.209 235.129C163.209 235.13 163.209 235.131 163.209 235.132C163.209 235.133 163.209 235.134 163.209 235.135C163.209 235.136 163.209 235.138 163.209 235.139C163.209 235.14 163.209 235.141 163.209 235.142C163.209 235.143 163.209 235.144 163.209 235.146C163.209 235.147 163.209 235.148 163.209 235.149C163.209 235.15 163.209 235.151 163.209 235.153C163.209 235.154 163.209 235.155 163.209 235.156C163.209 235.157 163.209 235.159 163.209 235.16C163.209 235.161 163.209 235.162 163.209 235.164C163.209 235.165 163.209 235.166 163.209 235.167C163.209 235.169 163.209 235.17 163.209 235.171C163.209 235.173 163.209 235.174 163.209 235.175C163.209 235.177 163.209 235.178 163.209 235.179C163.209 235.181 163.209 235.182 163.209 235.183C163.209 235.185 163.209 235.186 163.209 235.187C163.209 235.189 163.209 235.19 163.209 235.192C163.209 235.193 163.209 235.194 163.209 235.196C163.209 235.197 163.209 235.199 163.209 235.2C163.209 235.202 163.209 235.203 163.209 235.204C163.209 235.206 163.209 235.207 163.209 235.209C163.209 235.21 163.209 235.212 163.209 235.213C163.209 235.215 163.209 235.216 163.209 235.218C163.209 235.219 163.209 235.221 163.209 235.222C163.209 235.224 163.209 235.226 163.209 235.227C163.209 235.229 163.209 235.23 163.209 235.232C163.209 235.233 163.209 235.235 163.209 235.237C163.209 235.238 163.209 235.24 163.209 235.242C163.209 235.243 163.209 235.245 163.209 235.246C163.209 235.248 163.209 235.25 163.209 235.251C163.209 235.253 163.209 235.255 163.209 235.257C163.209 235.258 163.209 235.26 163.209 235.262C163.209 235.263 163.209 235.265 163.209 235.267C163.209 235.269 163.209 235.27 163.209 235.272C163.209 235.274 163.209 235.276 163.209 235.277C163.209 235.279 163.209 235.281 163.209 235.283C163.209 235.285 163.209 235.286 163.209 235.288C163.209 235.29 163.209 235.292 163.209 235.294C163.209 235.296 163.209 235.298 163.209 235.299C163.209 235.301 163.209 235.303 163.209 235.305C163.209 235.307 163.209 235.309 163.209 235.311C163.209 235.313 163.209 235.315 163.209 235.317C163.209 235.319 163.209 235.321 163.209 235.323C163.209 235.325 163.209 235.327 163.209 235.329C163.209 235.331 163.209 235.333 163.209 235.335C163.209 235.337 163.209 235.339 163.209 235.341C163.209 235.343 163.209 235.345 163.209 235.347C163.209 235.349 163.209 235.351 163.209 235.353C163.209 235.355 163.209 235.357 163.209 235.36C163.209 235.362 163.209 235.364 163.209 235.366C163.209 235.368 163.209 235.37 163.209 235.373C163.209 235.375 163.209 235.377 163.209 235.379C163.209 235.381 163.209 235.384 163.209 235.386C163.209 235.388 163.209 235.39 163.209 235.392C163.209 235.395 163.209 235.397 163.209 235.399C163.209 235.402 163.209 235.404 163.209 235.406C163.209 235.408 163.209 235.411 163.209 235.413C163.209 235.415 163.209 235.418 163.209 235.42C163.209 235.423 163.209 235.425 163.209 235.427C163.209 235.43 163.209 235.432 163.209 235.435C163.209 235.437 163.209 235.439 163.209 235.442C163.209 235.444 163.209 235.447 163.209 235.449C163.209 235.452 163.209 235.454 163.209 235.457C163.209 235.459 163.209 235.462 163.209 235.464C163.209 235.467 163.209 235.469 163.209 235.472C163.209 235.474 163.209 235.477 163.209 235.479C163.209 235.482 163.209 235.485 163.209 235.487C163.209 235.49 163.209 235.492 163.209 235.495C163.209 235.498 163.209 235.5 163.209 235.503C163.209 235.506 163.209 235.508 163.209 235.511C163.209 235.514 163.209 235.516 163.209 235.519C163.209 235.522 163.209 235.525 163.209 235.527C163.209 235.53 163.209 235.533 163.209 235.536C163.209 235.538 163.209 235.541 163.209 235.544C163.209 235.547 163.209 235.55 163.209 235.552C163.209 235.555 163.209 235.558 163.209 235.561C163.209 235.564 163.209 235.567 163.209 235.57C163.209 235.573 163.209 235.575 163.209 235.578C163.209 235.581 163.209 235.584 163.209 235.587C163.209 235.59 163.209 235.593 163.209 235.596C163.209 235.599 163.209 235.602 163.209 235.605C163.209 235.608 163.209 235.611 163.209 235.614C163.209 235.617 163.209 235.62 163.209 235.623C163.209 235.626 163.209 235.629 163.209 235.633C163.209 235.636 163.209 235.639 163.209 235.642C163.209 235.645 163.209 235.648 163.209 235.651C163.209 235.654 163.209 235.658 163.209 235.661C163.209 235.664 163.209 235.667 163.209 235.67C163.209 235.674 163.209 235.677 163.209 235.68C163.209 235.683 163.209 235.687 163.209 235.69C163.209 235.693 163.209 235.697 163.209 235.7C163.209 235.703 163.209 235.707 163.209 235.71C163.209 235.713 163.209 235.717 163.209 235.72C163.209 235.723 163.209 235.727 163.209 235.73C163.209 235.734 163.209 235.737 163.209 235.74C163.209 235.744 163.209 235.747 163.209 235.751C163.209 235.754 163.209 235.758 163.209 235.761C163.209 235.765 163.209 235.768 163.209 235.772C163.209 235.775 163.209 235.779 163.209 235.783C163.209 235.786 163.209 235.79 163.209 235.793C163.209 235.797 163.209 235.801 163.209 235.804C163.209 235.808 163.209 235.811 163.209 235.815C163.209 235.819 163.209 235.823 163.209 235.826C163.209 235.83 163.209 235.834 163.209 235.837C163.209 235.841 163.209 235.845 163.209 235.849C163.209 235.852 163.209 235.856 163.209 235.86C163.209 235.864 163.209 235.868 163.209 235.872C163.209 235.875 163.209 235.879 163.209 235.883C163.209 235.887 163.209 235.891 163.209 235.895C163.209 235.899 163.209 235.903 163.209 235.907C163.209 235.91 163.209 235.914 163.209 235.918C163.209 235.922 163.209 235.926 163.209 235.93C163.209 235.934 163.209 235.938 163.209 235.942C163.209 235.946 163.209 235.951 163.209 235.955C163.209 235.959 163.209 235.963 163.209 235.967C163.209 235.971 163.209 235.975 163.209 235.979C163.209 235.983 163.209 235.988 163.209 235.992C163.209 235.996 163.209 236 163.209 236.004C163.209 236.009 163.209 236.013 163.209 236.017C163.209 236.021 163.209 236.026 163.209 236.03C163.209 236.034 163.209 236.039 163.209 236.043C163.209 236.047 163.209 236.052 163.209 236.056C163.209 236.06 163.209 236.065 163.209 236.069C163.209 236.073 163.209 236.078 163.209 236.082C163.209 236.087 163.209 236.091 163.209 236.096C163.209 236.1 163.209 236.105 163.209 236.109C163.209 236.114 163.209 236.118 163.209 236.123C163.209 236.127 163.209 236.132 163.209 236.136C163.209 236.141 163.209 236.146 163.209 236.15C163.209 236.155 163.209 236.159 163.209 236.164C163.209 236.169 163.209 236.173 163.209 236.178C163.209 236.183 163.209 236.188 163.209 236.192C163.209 236.197 163.209 236.202 163.209 236.207C163.209 236.211 163.209 236.216 163.209 236.221C163.209 236.226 163.209 236.231 163.209 236.235C163.209 236.24 163.209 236.245 163.209 236.25C163.209 236.255 163.209 236.26 163.209 236.265C163.209 236.27 163.209 236.275 163.209 236.28C163.209 236.284 163.209 236.289 163.209 236.294C163.209 236.299 163.209 236.304 163.209 236.31C163.209 236.315 163.209 236.32 163.209 236.325C163.209 236.33 163.209 236.335 163.209 236.34C163.209 236.345 163.209 236.35 163.209 236.355C163.209 236.361 163.209 236.366 163.209 236.371C163.209 236.376 163.209 236.381 163.209 236.387C163.209 236.392 163.209 236.397 163.209 236.402C163.209 236.408 163.209 236.413 163.209 236.418C163.209 236.423 163.209 236.429 163.209 236.434C163.209 236.44 163.209 236.445 163.209 236.45C163.209 236.456 163.209 236.461 163.209 236.466C163.209 236.472 163.209 236.477 163.209 236.483C163.209 236.488 163.209 236.494 163.209 236.499C163.209 236.505 163.209 236.51 163.209 236.516C163.209 236.521 163.209 236.527 163.209 236.533C163.209 236.538 163.209 236.544 163.209 236.549C163.209 236.555 163.209 236.561 163.209 236.566C163.209 236.572 163.209 236.578 163.209 236.584C163.209 236.589 163.209 236.595 163.209 236.601C163.209 236.607 163.209 236.612 163.209 236.618C163.209 236.624 163.209 236.63 163.209 236.636C163.209 236.641 163.209 236.647 163.209 236.653C163.209 236.659 163.209 236.665 163.209 236.671C163.209 236.677 163.209 236.683 163.209 236.689C163.209 236.695 163.209 236.701 163.209 236.707C163.209 236.713 163.209 236.719 163.209 236.725C163.209 236.731 163.209 236.737 163.209 236.743C163.209 236.749 163.209 236.755 163.209 236.761C163.209 236.767 163.209 236.774 163.209 236.78C163.209 236.786 163.209 236.792 163.209 236.798C163.209 236.805 163.209 236.811 163.209 236.817C163.209 236.823 163.209 236.83 163.209 236.836C163.209 236.842 163.209 236.849 163.209 236.855C163.209 236.861 163.209 236.868 163.209 236.874C163.209 236.88 163.209 236.887 163.209 236.893C163.209 236.9 163.209 236.906 163.209 236.913C163.209 236.919 163.209 236.926 163.209 236.932C163.209 236.939 163.209 236.945 163.209 236.952C163.209 236.958 163.209 236.965 163.209 236.972C163.209 236.978 163.209 236.985 163.209 236.992C163.209 236.998 163.209 237.005 163.209 237.012C163.209 237.018 163.209 237.025 163.209 237.032C163.209 237.039 163.209 237.045 163.209 237.052C163.209 237.059 163.209 237.066 163.209 237.073C163.209 237.079 163.209 237.086 163.209 237.093C163.209 237.1 163.209 237.107 163.209 237.114C163.209 237.121 163.209 237.128 163.209 237.135C163.209 237.142 163.209 237.149 163.209 237.156C163.209 237.163 163.209 237.17 163.209 237.177C163.209 237.184 163.209 237.191 163.209 237.198C163.209 237.205 163.209 237.212 163.209 237.22C163.209 237.227 163.209 237.234 163.209 237.241C163.209 237.248 163.209 237.256 163.209 237.263C163.209 237.27 163.209 237.277 163.209 237.285C163.209 237.292 163.209 237.299 163.209 237.307C163.209 237.314 163.209 237.321 163.209 237.329C163.209 237.336 163.209 237.344 163.209 237.351C163.209 237.358 163.209 237.366 163.209 237.373C163.209 237.381 163.209 237.388 163.209 237.396C163.209 237.403 163.209 237.411 163.209 237.419C163.209 237.426 163.209 237.434 163.209 237.441C163.209 237.449 163.209 237.457 163.209 237.464C163.209 237.472 163.209 237.48 163.209 237.487C163.209 237.495 163.209 237.503 163.209 237.511C163.209 237.518 163.209 237.526 163.209 237.534C163.209 237.542 163.209 237.55 163.209 237.558C163.209 237.566 163.209 237.573 163.209 237.581C163.209 237.589 163.209 237.597 163.209 237.605C163.209 237.613 163.209 237.621 163.209 237.629C163.209 237.637 163.209 237.645 163.209 237.653C163.209 237.661 163.209 237.669 163.209 237.678C163.209 237.686 163.209 237.694 163.209 237.702C163.209 237.71 163.209 237.718 163.209 237.726C163.209 237.735 163.209 237.743 163.209 237.751C163.209 237.759 163.209 237.768 163.209 237.776C163.209 237.784 163.209 237.793 163.209 237.801C163.209 237.809 163.209 237.818 163.209 237.826C163.209 237.835 163.209 237.843 163.209 237.852C163.209 237.86 163.209 237.868 163.209 237.877C163.209 237.886 163.209 237.894 163.209 237.903C163.209 237.911 163.209 237.92 163.209 237.928C163.209 237.937 163.209 237.946 163.209 237.954C163.209 237.963 163.209 237.972 163.209 237.98C163.209 237.989 163.209 237.998 163.209 238.007C163.209 238.015 163.209 238.024 163.209 238.033C163.209 238.042 163.209 238.051 163.209 238.059C163.209 238.068 163.209 238.077 163.209 238.086C163.209 238.095 163.209 238.104 163.209 238.113C163.209 238.122 163.209 238.131 163.209 238.14C163.209 238.149 163.209 238.158 163.209 238.167C163.209 238.176 163.209 238.185 163.209 238.194C163.209 238.204 163.209 238.213 163.209 238.222C163.209 238.231 163.209 238.24 163.209 238.25C163.209 238.259 163.209 238.268 163.209 238.277C163.209 238.287 163.209 238.296 163.209 238.305C163.209 238.315 163.209 238.324 163.209 238.333C163.209 238.343 163.209 238.352 163.209 238.362C163.209 238.371 163.209 238.38 163.209 238.39C163.209 238.399 163.209 238.409 163.209 238.419C163.209 238.428 163.209 238.438 163.209 238.447C163.209 238.457 163.209 238.466 163.209 238.476C163.209 238.486 163.209 238.495 163.209 238.505C163.209 238.515 163.209 238.525 163.209 238.534C163.209 238.544 163.209 238.554 163.209 238.564C163.209 238.574 163.209 238.583 163.209 238.593C163.209 238.603 163.209 238.613 163.209 238.623C163.209 238.633 163.209 238.643 163.209 238.653C163.209 238.663 163.209 238.673 163.209 238.683C163.209 238.693 163.209 238.703 163.209 238.713C163.209 238.723 163.209 238.733 163.209 238.743C163.209 238.754 163.209 238.764 163.209 238.774C163.209 238.784 163.209 238.794 163.209 238.805C163.209 238.815 163.209 238.825 163.209 238.835C163.209 238.846 163.209 238.856 163.209 238.866C163.209 238.877 163.209 238.887 163.209 238.898C163.209 238.908 163.209 238.919 163.209 238.929C163.209 238.939 163.209 238.95 163.209 238.961C163.209 238.971 163.209 238.982 163.209 238.992C163.209 239.003 163.209 239.013 163.209 239.024C163.209 239.035 163.209 239.045 163.209 239.056C163.209 239.067 163.209 239.078 163.209 239.088C163.209 239.099 163.209 239.11 163.209 239.121C163.209 239.131 163.209 239.142 163.209 239.153C163.209 239.164 163.209 239.175 163.209 239.186C163.209 239.197 163.209 239.208 163.209 239.219C163.209 239.23 163.209 239.241 163.209 239.252C163.209 239.263 163.209 239.274 163.209 239.285C163.209 239.296 163.209 239.307 163.209 239.318C163.209 239.33 163.209 239.341 163.209 239.352C163.209 239.363 163.209 239.374 163.209 239.386C163.209 239.397 163.209 239.408 163.209 239.42C163.209 239.431 163.209 239.442 163.209 239.454C163.209 239.465 163.209 239.477 163.209 239.488C163.209 239.499 163.209 239.511 163.209 239.522C163.209 239.534 163.209 239.545 163.209 239.557C163.209 239.569 163.209 239.58 163.209 239.592C163.209 239.603 163.209 239.615 163.209 239.627C163.209 239.638 163.209 239.65 163.209 239.662C163.209 239.674 163.209 239.685 163.209 239.697C163.209 239.709 163.209 239.721 163.209 239.733C163.209 239.745 163.209 239.756 163.209 239.768C163.209 239.78 163.209 239.792 163.209 239.804C163.209 239.816 163.209 239.828 163.209 239.84C163.209 239.852 163.209 239.864 163.209 239.876C163.209 239.889 163.209 239.901 163.209 239.913C163.209 239.925 163.209 239.937 163.209 239.949C163.209 239.962 163.209 239.974 163.209 239.986C163.209 239.998 163.209 240.011 163.209 240.023C163.209 240.035 163.209 240.048 163.209 240.06C163.209 240.073 163.209 240.085 163.209 240.098C163.209 240.11 163.209 240.122 163.209 240.135C163.209 240.148 163.209 240.16 163.209 240.173C163.209 240.185 163.209 240.198 163.209 240.211C163.209 240.223 163.209 240.236 163.209 240.249C163.209 240.261 163.209 240.274 163.209 240.287C163.209 240.3 163.209 240.312 163.209 240.325C163.209 240.338 163.209 240.351 163.209 240.364C163.209 240.377 163.209 240.39 163.209 240.403C163.209 240.415 163.209 240.428 163.209 240.442C163.209 240.455 163.209 240.468 163.209 240.481C163.209 240.494 163.209 240.507 163.209 240.52C163.209 240.533 163.209 240.546 163.209 240.56C163.209 240.573 163.209 240.586 163.209 240.599C163.209 240.612 163.209 240.626 163.209 240.639C163.209 240.652 163.209 240.666 163.209 240.679C163.209 240.693 163.209 240.706 163.209 240.719C163.209 240.733 163.209 240.746 163.209 240.76C163.209 240.773 163.209 240.787 163.209 240.801C163.209 240.814 163.209 240.828 163.209 240.841C163.209 240.855 163.209 240.869 163.209 240.883C163.209 240.896 163.209 240.91 163.209 240.924C163.209 240.938 163.209 240.951 163.209 240.965C163.209 240.979 163.209 240.993 163.209 241.007C163.209 241.021 163.209 241.035 163.209 241.049C163.209 241.063 163.209 241.077 163.209 241.091C163.209 241.105 163.209 241.119 163.209 241.133C163.209 241.147 163.209 241.161 163.209 241.175C163.209 241.189 163.209 241.204 163.209 241.218C163.209 241.232 163.209 241.246 163.209 241.261C163.209 241.275 163.209 241.289 163.209 241.304C163.209 241.318 163.209 241.332 163.209 241.347C163.209 241.361 163.209 241.376 163.209 241.39C163.209 241.405 163.209 241.419 163.209 241.434C163.209 241.448 163.209 241.463 163.209 241.477C163.209 241.492 163.209 241.507 163.209 241.521C163.209 241.536 163.209 241.551 163.209 241.566C163.209 241.58 163.209 241.595 163.209 241.61C163.209 241.625 163.209 241.64 163.209 241.654C163.209 241.669 163.209 241.684 163.209 241.699C163.209 241.714 163.209 241.729 163.209 241.744C163.209 241.759 163.209 241.774 163.209 241.789C163.209 241.804 163.209 241.82 163.209 241.835C163.209 241.85 163.209 241.865 163.209 241.88C163.209 241.895 163.209 241.911 163.209 241.926C163.209 241.941 163.209 241.957 163.209 241.972C163.209 241.987 163.209 242.003 163.209 242.018C163.209 242.034 163.209 242.049 163.209 242.065C163.209 242.08 163.209 242.096 163.209 242.111C163.209 242.127 163.209 242.142 163.209 242.158C163.209 242.174 163.209 242.189 163.209 242.205C163.209 242.221 163.209 242.236 163.209 242.252C163.209 242.268 163.209 242.284 163.209 242.299C163.209 242.315 163.209 242.331 163.209 242.347C163.209 242.363 163.209 242.379 163.209 242.395C163.209 242.411 163.209 242.427 163.209 242.443C163.209 242.459 163.209 242.475 163.209 242.491C163.209 242.507 163.209 242.523 163.209 242.54C163.209 242.556 163.209 242.572 163.209 242.588C163.209 242.604 163.209 242.621 163.209 242.637C163.209 242.653 163.209 242.67 163.209 242.686C163.209 242.703 163.209 242.719 163.209 242.735C163.209 242.752 163.209 242.768 163.209 242.785C163.209 242.801 163.209 242.818 163.209 242.835C163.209 242.851 163.209 242.868 163.209 242.884C163.209 242.901 163.209 242.918 163.209 242.935C163.209 242.951 163.209 242.968 163.209 242.985C163.209 243.002 163.209 243.019 163.209 243.035C163.209 243.052 163.209 243.069 163.209 243.086C163.209 243.103 163.209 243.12 163.209 243.137C163.209 243.154 163.209 243.171 163.209 243.188C163.209 243.205 163.209 243.223 163.209 243.24C163.209 243.257 163.209 243.274 163.209 243.291C163.209 243.309 163.209 243.326 163.209 243.343C163.209 243.36 163.209 243.378 163.209 243.395C163.209 243.413 163.209 243.43 163.209 243.447C163.209 243.465 163.209 243.482 163.209 243.5C163.209 243.517 163.209 243.535 163.209 243.553C163.209 243.57 163.209 243.588 163.209 243.606C163.209 243.623 163.209 243.641 163.209 243.659C163.209 243.676 163.209 243.694 163.209 243.712C163.209 243.73 163.209 243.748 163.209 243.766C163.209 243.783 163.209 243.801 163.209 243.819C163.209 243.837 163.209 243.855 163.209 243.873C163.209 243.891 163.209 243.909 163.209 243.928C163.209 243.946 163.209 243.964 163.209 243.982C163.209 244 163.209 244.018 163.209 244.037C163.209 244.055 163.209 244.073 163.209 244.091C163.209 244.11 163.209 244.128 163.209 244.147C163.209 244.165 163.209 244.183 163.209 244.202C163.209 244.22 163.209 244.239 163.209 244.257C163.209 244.276 163.209 244.295 163.209 244.313C163.209 244.332 163.209 244.351 163.209 244.369C163.209 244.388 163.209 244.407 163.209 244.425C163.209 244.444 163.209 244.463 163.209 244.482C163.209 244.501 163.209 244.52 163.209 244.539C163.209 244.557 163.209 244.576 163.209 244.595C163.209 244.614 163.209 244.633 163.209 244.653C163.209 244.672 163.209 244.691 163.209 244.71C163.209 244.729 163.209 244.748 163.209 244.767C163.209 244.787 163.209 244.806 163.209 244.825C163.209 244.845 163.209 244.864 163.209 244.883C163.209 244.903 163.209 244.922 163.209 244.942C163.209 244.961 163.209 244.98 163.209 245H164.334H165.459C165.459 244.98 165.459 244.961 165.459 244.942C165.459 244.922 165.459 244.903 165.459 244.883C165.459 244.864 165.459 244.845 165.459 244.825C165.459 244.806 165.459 244.787 165.459 244.767C165.459 244.748 165.459 244.729 165.459 244.71C165.459 244.691 165.459 244.672 165.459 244.653C165.459 244.633 165.459 244.614 165.459 244.595C165.459 244.576 165.459 244.557 165.459 244.539C165.459 244.52 165.459 244.501 165.459 244.482C165.459 244.463 165.459 244.444 165.459 244.425C165.459 244.407 165.459 244.388 165.459 244.369C165.459 244.351 165.459 244.332 165.459 244.313C165.459 244.295 165.459 244.276 165.459 244.257C165.459 244.239 165.459 244.22 165.459 244.202C165.459 244.183 165.459 244.165 165.459 244.147C165.459 244.128 165.459 244.11 165.459 244.091C165.459 244.073 165.459 244.055 165.459 244.037C165.459 244.018 165.459 244 165.459 243.982C165.459 243.964 165.459 243.946 165.459 243.928C165.459 243.909 165.459 243.891 165.459 243.873C165.459 243.855 165.459 243.837 165.459 243.819C165.459 243.801 165.459 243.783 165.459 243.766C165.459 243.748 165.459 243.73 165.459 243.712C165.459 243.694 165.459 243.676 165.459 243.659C165.459 243.641 165.459 243.623 165.459 243.606C165.459 243.588 165.459 243.57 165.459 243.553C165.459 243.535 165.459 243.517 165.459 243.5C165.459 243.482 165.459 243.465 165.459 243.447C165.459 243.43 165.459 243.413 165.459 243.395C165.459 243.378 165.459 243.36 165.459 243.343C165.459 243.326 165.459 243.309 165.459 243.291C165.459 243.274 165.459 243.257 165.459 243.24C165.459 243.223 165.459 243.205 165.459 243.188C165.459 243.171 165.459 243.154 165.459 243.137C165.459 243.12 165.459 243.103 165.459 243.086C165.459 243.069 165.459 243.052 165.459 243.035C165.459 243.019 165.459 243.002 165.459 242.985C165.459 242.968 165.459 242.951 165.459 242.935C165.459 242.918 165.459 242.901 165.459 242.884C165.459 242.868 165.459 242.851 165.459 242.835C165.459 242.818 165.459 242.801 165.459 242.785C165.459 242.768 165.459 242.752 165.459 242.735C165.459 242.719 165.459 242.703 165.459 242.686C165.459 242.67 165.459 242.653 165.459 242.637C165.459 242.621 165.459 242.604 165.459 242.588C165.459 242.572 165.459 242.556 165.459 242.54C165.459 242.523 165.459 242.507 165.459 242.491C165.459 242.475 165.459 242.459 165.459 242.443C165.459 242.427 165.459 242.411 165.459 242.395C165.459 242.379 165.459 242.363 165.459 242.347C165.459 242.331 165.459 242.315 165.459 242.299C165.459 242.284 165.459 242.268 165.459 242.252C165.459 242.236 165.459 242.221 165.459 242.205C165.459 242.189 165.459 242.174 165.459 242.158C165.459 242.142 165.459 242.127 165.459 242.111C165.459 242.096 165.459 242.08 165.459 242.065C165.459 242.049 165.459 242.034 165.459 242.018C165.459 242.003 165.459 241.987 165.459 241.972C165.459 241.957 165.459 241.941 165.459 241.926C165.459 241.911 165.459 241.895 165.459 241.88C165.459 241.865 165.459 241.85 165.459 241.835C165.459 241.82 165.459 241.804 165.459 241.789C165.459 241.774 165.459 241.759 165.459 241.744C165.459 241.729 165.459 241.714 165.459 241.699C165.459 241.684 165.459 241.669 165.459 241.654C165.459 241.64 165.459 241.625 165.459 241.61C165.459 241.595 165.459 241.58 165.459 241.566C165.459 241.551 165.459 241.536 165.459 241.521C165.459 241.507 165.459 241.492 165.459 241.477C165.459 241.463 165.459 241.448 165.459 241.434C165.459 241.419 165.459 241.405 165.459 241.39C165.459 241.376 165.459 241.361 165.459 241.347C165.459 241.332 165.459 241.318 165.459 241.304C165.459 241.289 165.459 241.275 165.459 241.261C165.459 241.246 165.459 241.232 165.459 241.218C165.459 241.204 165.459 241.189 165.459 241.175C165.459 241.161 165.459 241.147 165.459 241.133C165.459 241.119 165.459 241.105 165.459 241.091C165.459 241.077 165.459 241.063 165.459 241.049C165.459 241.035 165.459 241.021 165.459 241.007C165.459 240.993 165.459 240.979 165.459 240.965C165.459 240.951 165.459 240.938 165.459 240.924C165.459 240.91 165.459 240.896 165.459 240.883C165.459 240.869 165.459 240.855 165.459 240.841C165.459 240.828 165.459 240.814 165.459 240.801C165.459 240.787 165.459 240.773 165.459 240.76C165.459 240.746 165.459 240.733 165.459 240.719C165.459 240.706 165.459 240.693 165.459 240.679C165.459 240.666 165.459 240.652 165.459 240.639C165.459 240.626 165.459 240.612 165.459 240.599C165.459 240.586 165.459 240.573 165.459 240.56C165.459 240.546 165.459 240.533 165.459 240.52C165.459 240.507 165.459 240.494 165.459 240.481C165.459 240.468 165.459 240.455 165.459 240.442C165.459 240.428 165.459 240.415 165.459 240.403C165.459 240.39 165.459 240.377 165.459 240.364C165.459 240.351 165.459 240.338 165.459 240.325C165.459 240.312 165.459 240.3 165.459 240.287C165.459 240.274 165.459 240.261 165.459 240.249C165.459 240.236 165.459 240.223 165.459 240.211C165.459 240.198 165.459 240.185 165.459 240.173C165.459 240.16 165.459 240.148 165.459 240.135C165.459 240.122 165.459 240.11 165.459 240.098C165.459 240.085 165.459 240.073 165.459 240.06C165.459 240.048 165.459 240.035 165.459 240.023C165.459 240.011 165.459 239.998 165.459 239.986C165.459 239.974 165.459 239.962 165.459 239.949C165.459 239.937 165.459 239.925 165.459 239.913C165.459 239.901 165.459 239.889 165.459 239.876C165.459 239.864 165.459 239.852 165.459 239.84C165.459 239.828 165.459 239.816 165.459 239.804C165.459 239.792 165.459 239.78 165.459 239.768C165.459 239.756 165.459 239.745 165.459 239.733C165.459 239.721 165.459 239.709 165.459 239.697C165.459 239.685 165.459 239.674 165.459 239.662C165.459 239.65 165.459 239.638 165.459 239.627C165.459 239.615 165.459 239.603 165.459 239.592C165.459 239.58 165.459 239.569 165.459 239.557C165.459 239.545 165.459 239.534 165.459 239.522C165.459 239.511 165.459 239.499 165.459 239.488C165.459 239.477 165.459 239.465 165.459 239.454C165.459 239.442 165.459 239.431 165.459 239.42C165.459 239.408 165.459 239.397 165.459 239.386C165.459 239.374 165.459 239.363 165.459 239.352C165.459 239.341 165.459 239.33 165.459 239.318C165.459 239.307 165.459 239.296 165.459 239.285C165.459 239.274 165.459 239.263 165.459 239.252C165.459 239.241 165.459 239.23 165.459 239.219C165.459 239.208 165.459 239.197 165.459 239.186C165.459 239.175 165.459 239.164 165.459 239.153C165.459 239.142 165.459 239.131 165.459 239.121C165.459 239.11 165.459 239.099 165.459 239.088C165.459 239.078 165.459 239.067 165.459 239.056C165.459 239.045 165.459 239.035 165.459 239.024C165.459 239.013 165.459 239.003 165.459 238.992C165.459 238.982 165.459 238.971 165.459 238.961C165.459 238.95 165.459 238.939 165.459 238.929C165.459 238.919 165.459 238.908 165.459 238.898C165.459 238.887 165.459 238.877 165.459 238.866C165.459 238.856 165.459 238.846 165.459 238.835C165.459 238.825 165.459 238.815 165.459 238.805C165.459 238.794 165.459 238.784 165.459 238.774C165.459 238.764 165.459 238.754 165.459 238.743C165.459 238.733 165.459 238.723 165.459 238.713C165.459 238.703 165.459 238.693 165.459 238.683C165.459 238.673 165.459 238.663 165.459 238.653C165.459 238.643 165.459 238.633 165.459 238.623C165.459 238.613 165.459 238.603 165.459 238.593C165.459 238.583 165.459 238.574 165.459 238.564C165.459 238.554 165.459 238.544 165.459 238.534C165.459 238.525 165.459 238.515 165.459 238.505C165.459 238.495 165.459 238.486 165.459 238.476C165.459 238.466 165.459 238.457 165.459 238.447C165.459 238.438 165.459 238.428 165.459 238.419C165.459 238.409 165.459 238.399 165.459 238.39C165.459 238.38 165.459 238.371 165.459 238.362C165.459 238.352 165.459 238.343 165.459 238.333C165.459 238.324 165.459 238.315 165.459 238.305C165.459 238.296 165.459 238.287 165.459 238.277C165.459 238.268 165.459 238.259 165.459 238.25C165.459 238.24 165.459 238.231 165.459 238.222C165.459 238.213 165.459 238.204 165.459 238.194C165.459 238.185 165.459 238.176 165.459 238.167C165.459 238.158 165.459 238.149 165.459 238.14C165.459 238.131 165.459 238.122 165.459 238.113C165.459 238.104 165.459 238.095 165.459 238.086C165.459 238.077 165.459 238.068 165.459 238.059C165.459 238.051 165.459 238.042 165.459 238.033C165.459 238.024 165.459 238.015 165.459 238.007C165.459 237.998 165.459 237.989 165.459 237.98C165.459 237.972 165.459 237.963 165.459 237.954C165.459 237.946 165.459 237.937 165.459 237.928C165.459 237.92 165.459 237.911 165.459 237.903C165.459 237.894 165.459 237.886 165.459 237.877C165.459 237.868 165.459 237.86 165.459 237.852C165.459 237.843 165.459 237.835 165.459 237.826C165.459 237.818 165.459 237.809 165.459 237.801C165.459 237.793 165.459 237.784 165.459 237.776C165.459 237.768 165.459 237.759 165.459 237.751C165.459 237.743 165.459 237.735 165.459 237.726C165.459 237.718 165.459 237.71 165.459 237.702C165.459 237.694 165.459 237.686 165.459 237.678C165.459 237.669 165.459 237.661 165.459 237.653C165.459 237.645 165.459 237.637 165.459 237.629C165.459 237.621 165.459 237.613 165.459 237.605C165.459 237.597 165.459 237.589 165.459 237.581C165.459 237.573 165.459 237.566 165.459 237.558C165.459 237.55 165.459 237.542 165.459 237.534C165.459 237.526 165.459 237.518 165.459 237.511C165.459 237.503 165.459 237.495 165.459 237.487C165.459 237.48 165.459 237.472 165.459 237.464C165.459 237.457 165.459 237.449 165.459 237.441C165.459 237.434 165.459 237.426 165.459 237.419C165.459 237.411 165.459 237.403 165.459 237.396C165.459 237.388 165.459 237.381 165.459 237.373C165.459 237.366 165.459 237.358 165.459 237.351C165.459 237.344 165.459 237.336 165.459 237.329C165.459 237.321 165.459 237.314 165.459 237.307C165.459 237.299 165.459 237.292 165.459 237.285C165.459 237.277 165.459 237.27 165.459 237.263C165.459 237.256 165.459 237.248 165.459 237.241C165.459 237.234 165.459 237.227 165.459 237.22C165.459 237.212 165.459 237.205 165.459 237.198C165.459 237.191 165.459 237.184 165.459 237.177C165.459 237.17 165.459 237.163 165.459 237.156C165.459 237.149 165.459 237.142 165.459 237.135C165.459 237.128 165.459 237.121 165.459 237.114C165.459 237.107 165.459 237.1 165.459 237.093C165.459 237.086 165.459 237.079 165.459 237.073C165.459 237.066 165.459 237.059 165.459 237.052C165.459 237.045 165.459 237.039 165.459 237.032C165.459 237.025 165.459 237.018 165.459 237.012C165.459 237.005 165.459 236.998 165.459 236.992C165.459 236.985 165.459 236.978 165.459 236.972C165.459 236.965 165.459 236.958 165.459 236.952C165.459 236.945 165.459 236.939 165.459 236.932C165.459 236.926 165.459 236.919 165.459 236.913C165.459 236.906 165.459 236.9 165.459 236.893C165.459 236.887 165.459 236.88 165.459 236.874C165.459 236.868 165.459 236.861 165.459 236.855C165.459 236.849 165.459 236.842 165.459 236.836C165.459 236.83 165.459 236.823 165.459 236.817C165.459 236.811 165.459 236.805 165.459 236.798C165.459 236.792 165.459 236.786 165.459 236.78C165.459 236.774 165.459 236.767 165.459 236.761C165.459 236.755 165.459 236.749 165.459 236.743C165.459 236.737 165.459 236.731 165.459 236.725C165.459 236.719 165.459 236.713 165.459 236.707C165.459 236.701 165.459 236.695 165.459 236.689C165.459 236.683 165.459 236.677 165.459 236.671C165.459 236.665 165.459 236.659 165.459 236.653C165.459 236.647 165.459 236.641 165.459 236.636C165.459 236.63 165.459 236.624 165.459 236.618C165.459 236.612 165.459 236.607 165.459 236.601C165.459 236.595 165.459 236.589 165.459 236.584C165.459 236.578 165.459 236.572 165.459 236.566C165.459 236.561 165.459 236.555 165.459 236.549C165.459 236.544 165.459 236.538 165.459 236.533C165.459 236.527 165.459 236.521 165.459 236.516C165.459 236.51 165.459 236.505 165.459 236.499C165.459 236.494 165.459 236.488 165.459 236.483C165.459 236.477 165.459 236.472 165.459 236.466C165.459 236.461 165.459 236.456 165.459 236.45C165.459 236.445 165.459 236.44 165.459 236.434C165.459 236.429 165.459 236.423 165.459 236.418C165.459 236.413 165.459 236.408 165.459 236.402C165.459 236.397 165.459 236.392 165.459 236.387C165.459 236.381 165.459 236.376 165.459 236.371C165.459 236.366 165.459 236.361 165.459 236.355C165.459 236.35 165.459 236.345 165.459 236.34C165.459 236.335 165.459 236.33 165.459 236.325C165.459 236.32 165.459 236.315 165.459 236.31C165.459 236.304 165.459 236.299 165.459 236.294C165.459 236.289 165.459 236.284 165.459 236.28C165.459 236.275 165.459 236.27 165.459 236.265C165.459 236.26 165.459 236.255 165.459 236.25C165.459 236.245 165.459 236.24 165.459 236.235C165.459 236.231 165.459 236.226 165.459 236.221C165.459 236.216 165.459 236.211 165.459 236.207C165.459 236.202 165.459 236.197 165.459 236.192C165.459 236.188 165.459 236.183 165.459 236.178C165.459 236.173 165.459 236.169 165.459 236.164C165.459 236.159 165.459 236.155 165.459 236.15C165.459 236.146 165.459 236.141 165.459 236.136C165.459 236.132 165.459 236.127 165.459 236.123C165.459 236.118 165.459 236.114 165.459 236.109C165.459 236.105 165.459 236.1 165.459 236.096C165.459 236.091 165.459 236.087 165.459 236.082C165.459 236.078 165.459 236.073 165.459 236.069C165.459 236.065 165.459 236.06 165.459 236.056C165.459 236.052 165.459 236.047 165.459 236.043C165.459 236.039 165.459 236.034 165.459 236.03C165.459 236.026 165.459 236.021 165.459 236.017C165.459 236.013 165.459 236.009 165.459 236.004C165.459 236 165.459 235.996 165.459 235.992C165.459 235.988 165.459 235.983 165.459 235.979C165.459 235.975 165.459 235.971 165.459 235.967C165.459 235.963 165.459 235.959 165.459 235.955C165.459 235.951 165.459 235.946 165.459 235.942C165.459 235.938 165.459 235.934 165.459 235.93C165.459 235.926 165.459 235.922 165.459 235.918C165.459 235.914 165.459 235.91 165.459 235.907C165.459 235.903 165.459 235.899 165.459 235.895C165.459 235.891 165.459 235.887 165.459 235.883C165.459 235.879 165.459 235.875 165.459 235.872C165.459 235.868 165.459 235.864 165.459 235.86C165.459 235.856 165.459 235.852 165.459 235.849C165.459 235.845 165.459 235.841 165.459 235.837C165.459 235.834 165.459 235.83 165.459 235.826C165.459 235.823 165.459 235.819 165.459 235.815C165.459 235.811 165.459 235.808 165.459 235.804C165.459 235.801 165.459 235.797 165.459 235.793C165.459 235.79 165.459 235.786 165.459 235.783C165.459 235.779 165.459 235.775 165.459 235.772C165.459 235.768 165.459 235.765 165.459 235.761C165.459 235.758 165.459 235.754 165.459 235.751C165.459 235.747 165.459 235.744 165.459 235.74C165.459 235.737 165.459 235.734 165.459 235.73C165.459 235.727 165.459 235.723 165.459 235.72C165.459 235.717 165.459 235.713 165.459 235.71C165.459 235.707 165.459 235.703 165.459 235.7C165.459 235.697 165.459 235.693 165.459 235.69C165.459 235.687 165.459 235.683 165.459 235.68C165.459 235.677 165.459 235.674 165.459 235.67C165.459 235.667 165.459 235.664 165.459 235.661C165.459 235.658 165.459 235.654 165.459 235.651C165.459 235.648 165.459 235.645 165.459 235.642C165.459 235.639 165.459 235.636 165.459 235.633C165.459 235.629 165.459 235.626 165.459 235.623C165.459 235.62 165.459 235.617 165.459 235.614C165.459 235.611 165.459 235.608 165.459 235.605C165.459 235.602 165.459 235.599 165.459 235.596C165.459 235.593 165.459 235.59 165.459 235.587C165.459 235.584 165.459 235.581 165.459 235.578C165.459 235.575 165.459 235.573 165.459 235.57C165.459 235.567 165.459 235.564 165.459 235.561C165.459 235.558 165.459 235.555 165.459 235.552C165.459 235.55 165.459 235.547 165.459 235.544C165.459 235.541 165.459 235.538 165.459 235.536C165.459 235.533 165.459 235.53 165.459 235.527C165.459 235.525 165.459 235.522 165.459 235.519C165.459 235.516 165.459 235.514 165.459 235.511C165.459 235.508 165.459 235.506 165.459 235.503C165.459 235.5 165.459 235.498 165.459 235.495C165.459 235.492 165.459 235.49 165.459 235.487C165.459 235.485 165.459 235.482 165.459 235.479C165.459 235.477 165.459 235.474 165.459 235.472C165.459 235.469 165.459 235.467 165.459 235.464C165.459 235.462 165.459 235.459 165.459 235.457C165.459 235.454 165.459 235.452 165.459 235.449C165.459 235.447 165.459 235.444 165.459 235.442C165.459 235.439 165.459 235.437 165.459 235.435C165.459 235.432 165.459 235.43 165.459 235.427C165.459 235.425 165.459 235.423 165.459 235.42C165.459 235.418 165.459 235.415 165.459 235.413C165.459 235.411 165.459 235.408 165.459 235.406C165.459 235.404 165.459 235.402 165.459 235.399C165.459 235.397 165.459 235.395 165.459 235.392C165.459 235.39 165.459 235.388 165.459 235.386C165.459 235.384 165.459 235.381 165.459 235.379C165.459 235.377 165.459 235.375 165.459 235.373C165.459 235.37 165.459 235.368 165.459 235.366C165.459 235.364 165.459 235.362 165.459 235.36C165.459 235.357 165.459 235.355 165.459 235.353C165.459 235.351 165.459 235.349 165.459 235.347C165.459 235.345 165.459 235.343 165.459 235.341C165.459 235.339 165.459 235.337 165.459 235.335C165.459 235.333 165.459 235.331 165.459 235.329C165.459 235.327 165.459 235.325 165.459 235.323C165.459 235.321 165.459 235.319 165.459 235.317C165.459 235.315 165.459 235.313 165.459 235.311C165.459 235.309 165.459 235.307 165.459 235.305C165.459 235.303 165.459 235.301 165.459 235.299C165.459 235.298 165.459 235.296 165.459 235.294C165.459 235.292 165.459 235.29 165.459 235.288C165.459 235.286 165.459 235.285 165.459 235.283C165.459 235.281 165.459 235.279 165.459 235.277C165.459 235.276 165.459 235.274 165.459 235.272C165.459 235.27 165.459 235.269 165.459 235.267C165.459 235.265 165.459 235.263 165.459 235.262C165.459 235.26 165.459 235.258 165.459 235.257C165.459 235.255 165.459 235.253 165.459 235.251C165.459 235.25 165.459 235.248 165.459 235.246C165.459 235.245 165.459 235.243 165.459 235.242C165.459 235.24 165.459 235.238 165.459 235.237C165.459 235.235 165.459 235.233 165.459 235.232C165.459 235.23 165.459 235.229 165.459 235.227C165.459 235.226 165.459 235.224 165.459 235.222C165.459 235.221 165.459 235.219 165.459 235.218C165.459 235.216 165.459 235.215 165.459 235.213C165.459 235.212 165.459 235.21 165.459 235.209C165.459 235.207 165.459 235.206 165.459 235.204C165.459 235.203 165.459 235.202 165.459 235.2C165.459 235.199 165.459 235.197 165.459 235.196C165.459 235.194 165.459 235.193 165.459 235.192C165.459 235.19 165.459 235.189 165.459 235.187C165.459 235.186 165.459 235.185 165.459 235.183C165.459 235.182 165.459 235.181 165.459 235.179C165.459 235.178 165.459 235.177 165.459 235.175C165.459 235.174 165.459 235.173 165.459 235.171C165.459 235.17 165.459 235.169 165.459 235.167C165.459 235.166 165.459 235.165 165.459 235.164C165.459 235.162 165.459 235.161 165.459 235.16C165.459 235.159 165.459 235.157 165.459 235.156C165.459 235.155 165.459 235.154 165.459 235.153C165.459 235.151 165.459 235.15 165.459 235.149C165.459 235.148 165.459 235.147 165.459 235.146C165.459 235.144 165.459 235.143 165.459 235.142C165.459 235.141 165.459 235.14 165.459 235.139C165.459 235.138 165.459 235.136 165.459 235.135C165.459 235.134 165.459 235.133 165.459 235.132C165.459 235.131 165.459 235.13 165.459 235.129C165.459 235.128 165.459 235.127 165.459 235.126C165.459 235.124 165.459 235.123 165.459 235.122C165.459 235.121 165.459 235.12 165.459 235.119C165.459 235.118 165.459 235.117 165.459 235.116C165.459 235.115 165.459 235.114 165.459 235.113C165.459 235.112 165.459 235.111 165.459 235.11C165.459 235.109 165.459 235.108 165.459 235.108C165.459 235.107 165.459 235.106 165.459 235.105C165.459 235.104 165.459 235.103 165.459 235.102C165.459 235.101 165.459 235.1 165.459 235.099C165.459 235.098 165.459 235.097 165.459 235.096C165.459 235.096 165.459 235.095 165.459 235.094C165.459 235.093 165.459 235.092 165.459 235.091C165.459 235.09 165.459 235.09 165.459 235.089C165.459 235.088 165.459 235.087 165.459 235.086C165.459 235.085 165.459 235.085 165.459 235.084C165.459 235.083 165.459 235.082 165.459 235.081C165.459 235.081 165.459 235.08 165.459 235.079C165.459 235.078 165.459 235.078 165.459 235.077C165.459 235.076 165.459 235.075 165.459 235.075C165.459 235.074 165.459 235.073 165.459 235.072C165.459 235.072 165.459 235.071 165.459 235.07C165.459 235.069 165.459 235.069 165.459 235.068C165.459 235.067 165.459 235.067 165.459 235.066C165.459 235.065 165.459 235.065 165.459 235.064C165.459 235.063 165.459 235.063 165.459 235.062C165.459 235.061 165.459 235.061 165.459 235.06C165.459 235.059 165.459 235.059 165.459 235.058C165.459 235.057 165.459 235.057 165.459 235.056C165.459 235.056 165.459 235.055 165.459 235.054C165.459 235.054 165.459 235.053 165.459 235.053C165.459 235.052 165.459 235.051 165.459 235.051C165.459 235.05 165.459 235.05 165.459 235.049C165.459 235.048 165.459 235.048 165.459 235.047C165.459 235.047 165.459 235.046 165.459 235.046C165.459 235.045 165.459 235.045 165.459 235.044C165.459 235.044 165.459 235.043 165.459 235.043C165.459 235.042 165.459 235.042 165.459 235.041C165.459 235.041 165.459 235.04 165.459 235.04C165.459 235.039 165.459 235.039 165.459 235.038C165.459 235.038 165.459 235.037 165.459 235.037C165.459 235.036 165.459 235.036 165.459 235.035C165.459 235.035 165.459 235.034 165.459 235.034C165.459 235.034 165.459 235.033 165.459 235.033C165.459 235.032 165.459 235.032 165.459 235.031C165.459 235.031 165.459 235.031 165.459 235.03C165.459 235.03 165.459 235.029 165.459 235.029C165.459 235.029 165.459 235.028 165.459 235.028C165.459 235.027 165.459 235.027 165.459 235.027C165.459 235.026 165.459 235.026 165.459 235.026C165.459 235.025 165.459 235.025 165.459 235.024C165.459 235.024 165.459 235.024 165.459 235.023C165.459 235.023 165.459 235.023 165.459 235.022C165.459 235.022 165.459 235.022 165.459 235.021C165.459 235.021 165.459 235.021 165.459 235.02C165.459 235.02 165.459 235.02 165.459 235.02C165.459 235.019 165.459 235.019 165.459 235.019C165.459 235.018 165.459 235.018 165.459 235.018C165.459 235.017 165.459 235.017 165.459 235.017C165.459 235.017 165.459 235.016 165.459 235.016C165.459 235.016 165.459 235.016 165.459 235.015C165.459 235.015 165.459 235.015 165.459 235.015C165.459 235.014 165.459 235.014 165.459 235.014C165.459 235.014 165.459 235.013 165.459 235.013C165.459 235.013 165.459 235.013 165.459 235.012C165.459 235.012 165.459 235.012 165.459 235.012C165.459 235.012 165.459 235.011 165.459 235.011C165.459 235.011 165.459 235.011 165.459 235.01C165.459 235.01 165.459 235.01 165.459 235.01C165.459 235.01 165.459 235.009 165.459 235.009C165.459 235.009 165.459 235.009 165.459 235.009C165.459 235.009 165.459 235.008 165.459 235.008C165.459 235.008 165.459 235.008 165.459 235.008C165.459 235.008 165.459 235.007 165.459 235.007C165.459 235.007 165.459 235.007 165.459 235.007C165.459 235.007 165.459 235.006 165.459 235.006C165.459 235.006 165.459 235.006 165.459 235.006C165.459 235.006 165.459 235.006 165.459 235.006C165.459 235.005 165.459 235.005 165.459 235.005C165.459 235.005 165.459 235.005 165.459 235.005C165.459 235.005 165.459 235.005 165.459 235.004C165.459 235.004 165.459 235.004 165.459 235.004C165.459 235.004 165.459 235.004 165.459 235.004C165.459 235.004 165.459 235.004 165.459 235.003C165.459 235.003 165.459 235.003 165.459 235.003C165.459 235.003 165.459 235.003 165.459 235.003C165.459 235.003 165.459 235.003 165.459 235.003C165.459 235.003 165.459 235.003 165.459 235.002C165.459 235.002 165.459 235.002 165.459 235.002C165.459 235.002 165.459 235.002 165.459 235.002C165.459 235.002 165.459 235.002 165.459 235.002C165.459 235.002 165.459 235.002 165.459 235.002C165.459 235.002 165.459 235.002 165.459 235.001C165.459 235.001 165.459 235.001 165.459 235.001C165.459 235.001 165.459 235.001 165.459 235.001C165.459 235.001 165.459 235.001 165.459 235.001C165.459 235.001 165.459 235.001 165.459 235.001C165.459 235.001 165.459 235.001 165.459 235.001C165.459 235.001 165.459 235.001 165.459 235.001C165.459 235.001 165.459 235.001 165.459 235.001C165.459 235.001 165.459 235.001 165.459 235.001C165.459 235 165.459 235 165.459 235C165.459 235 165.459 235 165.459 235C165.459 235 165.459 235 165.459 235C165.459 235 165.459 235 165.459 235C165.459 235 165.459 235 165.459 235C165.459 235 165.459 235 165.459 235C165.459 235 165.459 235 165.459 235C165.459 235 165.459 235 165.459 235C165.459 235 165.459 235 165.459 235C165.459 235 165.459 235 165.459 235C165.459 235 165.459 235 165.459 235C165.459 235 165.459 235 165.459 235C165.459 235 165.459 235 165.459 235C165.459 235 165.459 235 165.459 235C165.459 235 165.459 235 165.459 235C165.459 235 165.459 235 165.459 235C165.459 235 165.459 235 165.459 235C165.459 235 165.459 235 165.459 235C165.459 235 164.334 235 164.334 235ZM164.334 235H165.459V225H164.334H163.209V235H164.334Z" fill="white"/>
<path d="M223.829 227.098C224.243 228.252 223.637 229.534 222.484 229.948C222.295 230.016 222.109 230.059 221.922 230.067L219.524 235.13C219.637 235.279 219.726 235.461 219.793 235.65C220.207 236.803 219.602 238.086 218.448 238.5C217.295 238.914 216.012 238.309 215.598 237.155C215.53 236.966 215.483 236.77 215.476 236.583L211.841 234.868C211.692 234.981 211.511 235.07 211.322 235.137C211.133 235.205 210.937 235.252 210.75 235.26L207.694 241.755C207.807 241.904 207.892 242.075 207.959 242.264C208.373 243.418 207.768 244.7 206.614 245.114C205.46 245.528 204.178 244.923 203.764 243.769C203.35 242.616 203.955 241.333 205.109 240.919C205.298 240.851 205.483 240.808 205.67 240.8L208.741 234.311C208.628 234.162 208.539 233.981 208.471 233.792C208.057 232.639 208.663 231.356 209.817 230.942C210.97 230.528 212.253 231.133 212.667 232.287C212.735 232.476 212.782 232.672 212.789 232.859L216.424 234.574C216.573 234.461 216.754 234.372 216.943 234.305C217.132 234.237 217.328 234.19 217.515 234.182L219.898 229.112C219.786 228.963 219.701 228.792 219.633 228.603C219.219 227.45 219.824 226.167 220.978 225.753C222.132 225.339 223.415 225.944 223.829 227.098ZM223.829 227.098C224.243 228.252 223.637 229.534 222.484 229.948C222.295 230.016 222.109 230.059 221.922 230.067L219.524 235.13C219.637 235.279 219.726 235.461 219.793 235.65C220.207 236.803 219.602 238.086 218.448 238.5C217.295 238.914 216.012 238.309 215.598 237.155C215.53 236.966 215.483 236.77 215.476 236.583L211.841 234.868C211.692 234.981 211.511 235.07 211.322 235.137C211.133 235.205 210.937 235.252 210.75 235.26L207.694 241.755C207.807 241.904 207.892 242.075 207.959 242.264C208.373 243.418 207.768 244.7 206.614 245.114C205.46 245.528 204.178 244.923 203.764 243.769C203.35 242.616 203.955 241.333 205.109 240.919C205.298 240.851 205.483 240.808 205.67 240.8L208.741 234.311C208.628 234.162 208.539 233.981 208.471 233.792C208.057 232.639 208.663 231.356 209.817 230.942C210.97 230.528 212.253 231.133 212.667 232.287C212.735 232.476 212.782 232.672 212.789 232.859L216.424 234.574C216.573 234.461 216.754 234.372 216.943 234.305C217.132 234.237 217.328 234.19 217.515 234.182L219.898 229.112C219.786 228.963 219.701 228.792 219.633 228.603C219.219 227.45 219.824 226.167 220.978 225.753C222.132 225.339 223.415 225.944 223.829 227.098Z" fill="white"/>
<rect x="263" y="201" width="68" height="68" rx="34" fill="white" fill-opacity="0.15"/>
<path d="M302 230C302 227.233 299.767 225 297 225C294.233 225 292 227.233 292 230C292 232.767 294.233 235 297 235C299.767 235 302 232.767 302 230Z" fill="white"/>
<path d="M287 245H307V242.667C307 239.333 300.333 237.5 297 237.5C293.667 237.5 287 239.333 287 242.667V245Z" fill="white"/>
</g>
<path d="M30 1H372C388.016 1 401 13.9837 401 30V301H1V30C1 13.9837 13.9837 1 30 1Z" stroke="white" stroke-opacity="0.3" stroke-width="2"/>
<defs>
<linearGradient id="paint0_linear_350_3551" x1="201" y1="0" x2="201" y2="302" gradientUnits="userSpaceOnUse">
<stop/>
<stop offset="0.528846" stop-opacity="0.6"/>
<stop offset="1" stop-opacity="0"/>
</linearGradient>
<linearGradient id="paint1_linear_350_3551" x1="49.7931" y1="31.1107" x2="70.4284" y2="87.1107" gradientUnits="userSpaceOnUse">
<stop stop-color="white" stop-opacity="0.5"/>
<stop offset="1" stop-color="white" stop-opacity="0.3"/>
</linearGradient>
<linearGradient id="paint2_linear_350_3551" x1="49.7931" y1="109.111" x2="70.4284" y2="165.111" gradientUnits="userSpaceOnUse">
<stop stop-color="white" stop-opacity="0.5"/>
<stop offset="1" stop-color="white" stop-opacity="0.3"/>
</linearGradient>
<clipPath id="clip0_350_3551">
<path d="M0 30C0 13.4315 13.4315 0 30 0H372C388.569 0 402 13.4315 402 30V302H0V30Z" fill="white"/>
</clipPath>
<clipPath id="clip1_350_3551">
<rect width="32" height="32" fill="white" transform="translate(98 219)"/>
</clipPath>
</defs>
</svg>
